<svg version="1.1" id="Layer_1" xmlns="http://www.w3.org/2000/svg" xmlns:xlink="http://www.w3.org/1999/xlink" x="0px" y="0px"
	 width="100%" viewBox="0 0 185 53" enable-background="new 0 0 185 53" xml:space="preserve">
<path fill="#EAF7FF" opacity="1.000000" stroke="none" 
	d="
M1.000000,34.000000 
	C1.000000,32.611111 1.000000,31.222221 1.269030,29.172853 
	C3.407031,17.632275 13.760110,9.536987 25.386202,9.723039 
	C68.031410,10.405482 110.695320,10.158732 153.349213,9.849456 
	C161.557861,9.789936 167.728577,12.216718 173.004333,18.383379 
	C178.614807,24.941271 178.566971,38.211712 172.875549,44.754314 
	C168.786041,49.455395 163.793716,52.263588 158.000000,54.000000 
	C112.979103,54.000000 67.958206,54.000000 22.357021,53.783096 
	C21.575066,53.296108 21.313820,53.109383 20.594828,53.004246 
	C16.601126,51.307796 12.810136,49.927814 9.455882,47.844624 
	C4.431805,44.724361 2.897908,39.186577 1.000000,34.000000 
M145.386139,37.150715 
	C146.309753,37.083454 147.233353,37.016193 148.576309,37.317135 
	C149.282532,37.493408 149.988754,37.669682 151.526398,37.788490 
	C152.017395,34.358566 152.819183,30.938856 152.932343,27.496510 
	C153.144150,21.052227 152.959991,21.005960 146.665604,21.004274 
	C115.713661,20.995987 84.761475,20.946501 53.810120,21.081575 
	C50.614700,21.095520 47.424198,22.236258 44.231415,22.854158 
	C44.024433,23.416904 43.817451,23.979650 43.610470,24.542395 
	C43.356476,23.910215 43.246647,23.154528 42.826790,22.664446 
	C36.878075,15.720809 22.173515,13.388196 14.609794,18.302940 
	C13.140951,19.257362 11.638638,20.705988 10.983662,22.274118 
	C7.912749,29.626427 7.973696,37.144398 10.878563,44.538269 
	C11.449719,45.992050 12.729453,47.352440 14.014338,48.310917 
	C22.598900,54.714661 38.879951,51.045155 43.650852,41.560745 
	C44.929260,39.019321 46.441597,37.559139 50.124149,37.751553 
	C52.716400,37.387772 55.308651,37.023991 58.371120,37.318737 
	C60.010204,37.002148 61.649292,36.685558 63.913593,36.775055 
	C65.778374,37.086605 67.643150,37.398151 70.407410,37.857052 
	C71.700996,37.361111 72.994576,36.865170 74.913490,36.775169 
	C76.778305,37.086693 78.643127,37.398216 81.328575,37.858406 
	C82.438850,37.908501 83.549118,37.958595 84.804382,38.771698 
	C85.128204,39.796822 85.452019,40.821945 85.478012,40.904236 
	C88.653580,39.175667 91.191475,37.794209 94.217964,37.136475 
	C97.171318,37.001965 100.124680,36.867455 103.789894,36.971714 
	C105.703247,37.223476 107.616608,37.475243 110.465797,37.872398 
	C112.356018,37.894333 114.246246,37.916267 116.718124,37.902084 
	C117.290627,37.832066 117.863136,37.762043 119.191757,37.794827 
	C119.818665,37.447346 120.445580,37.099865 121.766533,36.995735 
	C123.411263,37.278679 125.056000,37.561623 127.485916,37.927540 
	C128.665405,37.593658 129.844910,37.259777 131.840012,37.021492 
	C134.662552,36.680695 137.485107,36.339897 140.791840,36.007118 
	C141.114685,36.007729 141.437531,36.008396 141.948853,36.600632 
	C142.909805,36.715546 143.870743,36.830456 145.386139,37.150715 
z"/>
<path fill="#FEFFFF" opacity="1.000000" stroke="none" 
	d="
M158.468658,54.000000 
	C163.793716,52.263588 168.786041,49.455395 172.875549,44.754314 
	C178.566971,38.211712 178.614807,24.941271 173.004333,18.383379 
	C167.728577,12.216718 161.557861,9.789936 153.349213,9.849456 
	C110.695320,10.158732 68.031410,10.405482 25.386202,9.723039 
	C13.760110,9.536987 3.407031,17.632275 1.269030,28.756187 
	C1.000000,19.686243 1.000000,10.372485 1.000000,1.000000 
	C61.020882,1.000000 121.041786,1.000000 181.390564,1.343266 
	C179.200684,2.499400 176.638519,3.201129 174.187164,4.180306 
	C173.218063,4.567401 171.990173,5.468700 171.814896,6.326813 
	C171.664810,7.061590 172.756256,8.152560 173.462662,8.938552 
	C174.980118,10.626993 176.560043,12.265722 178.202209,13.832796 
	C178.977783,14.572902 180.032181,15.673009 180.820633,15.567436 
	C181.639465,15.457795 182.464890,14.185077 182.977676,13.250953 
	C184.089874,11.224812 185.004562,9.090238 186.000000,7.000000 
	C186.000000,22.574703 186.000000,38.149406 186.000000,54.000000 
	C176.980972,54.000000 167.959152,54.000000 158.468658,54.000000 
z"/>
<path fill="#31B1FF" opacity="1.000000" stroke="none" 
	d="
M186.000000,6.500529 
	C185.004562,9.090238 184.089874,11.224812 182.977676,13.250953 
	C182.464890,14.185077 181.639465,15.457795 180.820633,15.567436 
	C180.032181,15.673009 178.977783,14.572902 178.202209,13.832796 
	C176.560043,12.265722 174.980118,10.626993 173.462662,8.938552 
	C172.756256,8.152560 171.664810,7.061590 171.814896,6.326813 
	C171.990173,5.468700 173.218063,4.567401 174.187164,4.180306 
	C176.638519,3.201129 179.200684,2.499400 181.859222,1.343266 
	C183.263306,1.000000 184.526611,1.000000 186.000000,1.000000 
	C186.000000,2.664852 186.000000,4.332954 186.000000,6.500529 
z"/>
<path fill="#FEFFFF" opacity="1.000000" stroke="none" 
	d="
M1.000000,34.469044 
	C2.897908,39.186577 4.431805,44.724361 9.455882,47.844624 
	C12.810136,49.927814 16.601126,51.307796 20.597202,53.252708 
	C20.997740,53.502930 21.000000,54.000000 21.000000,54.000000 
	C14.407272,54.000000 7.814544,54.000000 1.000000,54.000000 
	C1.000000,47.647739 1.000000,41.292915 1.000000,34.469044 
z"/>
<path fill="#F3FBFF" opacity="1.000000" stroke="none" 
	d="
M21.250000,54.000000 
	C21.000000,54.000000 20.997740,53.502930 20.995365,53.254467 
	C21.313820,53.109383 21.575066,53.296108 21.888363,53.783096 
	C22.000000,54.000000 21.500000,54.000000 21.250000,54.000000 
z"/>
<path fill="#E4F5FF" opacity="1.000000" stroke="none" 
	d="
M103.078033,36.732944 
	C100.124680,36.867455 97.171318,37.001965 94.087013,36.450439 
	C95.849380,28.681450 94.733284,27.629171 84.659393,27.665644 
	C84.659393,31.106979 84.659393,34.557835 84.659393,38.008690 
	C83.549118,37.958595 82.438850,37.908501 81.167816,37.535225 
	C82.298759,35.815887 83.078339,34.604271 80.127884,34.659744 
	C78.913750,34.682571 77.698830,34.663528 76.484276,34.663528 
	C76.487686,34.230606 76.491104,33.797680 76.494522,33.364758 
	C78.519371,33.135357 80.544220,32.905956 82.615807,32.671261 
	C82.806656,29.244064 81.518524,26.711599 78.288216,27.284981 
	C76.381111,27.623493 74.417053,29.842682 73.327950,31.711170 
	C72.733589,32.730850 73.910225,34.782810 74.288162,36.369228 
	C72.994576,36.865170 71.700996,37.361111 70.207199,37.534515 
	C71.298485,35.815918 72.078415,34.604214 69.127831,34.659767 
	C67.913719,34.682625 66.698814,34.663555 65.484276,34.663555 
	C65.492470,34.230076 65.500664,33.796600 65.508858,33.363121 
	C67.528244,33.134342 69.547623,32.905563 71.615761,32.671257 
	C71.806702,29.244143 70.518600,26.711729 67.288361,27.284966 
	C65.381317,27.623390 63.417213,29.842468 62.328133,31.710876 
	C61.733772,32.730556 62.910423,34.782539 63.288376,36.368969 
	C61.649292,36.685558 60.010204,37.002148 58.343430,36.696545 
	C58.632359,32.976627 60.063141,29.415510 59.011456,26.886885 
	C57.320976,22.822378 52.962902,24.009951 48.666401,24.257689 
	C48.899906,28.993862 49.117664,33.410660 49.335426,37.827454 
	C46.441597,37.559139 44.929260,39.019321 43.650852,41.560745 
	C38.879951,51.045155 22.598900,54.714661 14.014338,48.310917 
	C12.729453,47.352440 11.449719,45.992050 10.878563,44.538269 
	C7.973696,37.144398 7.912749,29.626427 10.983662,22.274118 
	C11.638638,20.705988 13.140951,19.257362 14.609794,18.302940 
	C22.173515,13.388196 36.878075,15.720809 42.826790,22.664446 
	C43.246647,23.154528 43.356476,23.910215 43.610470,24.542395 
	C43.817451,23.979650 44.024433,23.416904 44.231415,22.854158 
	C47.424198,22.236258 50.614700,21.095520 53.810120,21.081575 
	C84.761475,20.946501 115.713661,20.995987 146.665604,21.004274 
	C152.959991,21.005960 153.144150,21.052227 152.932343,27.496510 
	C152.819183,30.938856 152.017395,34.358566 151.228058,37.389286 
	C151.491043,26.961962 151.033020,26.346512 143.668503,27.550348 
	C142.787613,30.252356 142.273987,33.130737 141.760361,36.009121 
	C141.437531,36.008396 141.114685,36.007729 140.264389,35.703819 
	C139.485962,33.660946 139.567596,31.773224 138.879501,30.228346 
	C138.322067,28.976841 136.940994,27.477888 135.739136,27.291981 
	C134.405975,27.085770 131.837540,27.974773 131.602997,28.861807 
	C130.926056,31.421839 131.152634,34.220776 131.024399,36.925896 
	C129.844910,37.259777 128.665405,37.593658 127.329895,37.623428 
	C127.618729,36.625042 128.063583,35.930775 128.579102,35.126225 
	C126.481277,34.861000 124.826988,34.651848 123.172707,34.442699 
	C123.224190,34.073231 123.275681,33.703766 123.327164,33.334301 
	C125.105537,33.153683 126.883911,32.973064 128.783432,32.780140 
	C129.488892,29.308596 128.140640,27.336157 124.905724,27.137482 
	C121.727127,26.942263 119.855682,28.796972 119.924515,32.009518 
	C119.958542,33.597946 120.668411,35.171890 121.072479,36.752388 
	C120.445580,37.099865 119.818665,37.447346 118.854683,37.395035 
	C117.724716,32.381618 116.931824,27.767996 116.138931,23.154371 
	C115.657181,23.207014 115.175430,23.259657 114.693687,23.312300 
	C114.353394,28.220467 112.501045,33.189152 116.136467,37.938202 
	C114.246246,37.916267 112.356018,37.894333 110.264336,37.551441 
	C110.762383,36.094700 111.461899,34.958916 111.957909,34.153549 
	C109.133499,34.153549 106.630867,34.797108 104.945930,33.901802 
	C104.000259,33.399307 103.617981,29.173969 104.357056,28.678904 
	C106.318581,27.364986 109.027382,27.166653 112.135056,26.339186 
	C110.977821,25.598633 109.603653,23.992306 108.465012,24.144779 
	C106.224106,24.444849 103.305473,25.122139 102.120354,26.720705 
	C99.751999,29.915268 100.549690,33.592884 103.078033,36.732944 
M38.521152,25.184174 
	C33.538860,16.850033 20.412930,18.515526 16.029421,22.640554 
	C12.074666,26.362112 11.236793,35.745823 13.944895,40.858665 
	C16.237700,45.187435 22.407413,48.446297 27.347193,47.937801 
	C34.599892,47.191212 38.965897,43.719234 40.172352,36.360561 
	C40.720650,33.016296 39.393528,29.364557 38.521152,25.184174 
z"/>
<path fill="#3AB4FF" opacity="1.000000" stroke="none" 
	d="
M49.729790,37.789505 
	C49.117664,33.410660 48.899906,28.993862 48.666401,24.257689 
	C52.962902,24.009951 57.320976,22.822378 59.011456,26.886885 
	C60.063141,29.415510 58.632359,32.976627 58.108318,36.367279 
	C55.308651,37.023991 52.716400,37.387772 49.729790,37.789505 
M54.869102,26.534395 
	C47.247395,26.913120 53.048882,32.044830 51.870018,35.059002 
	C53.976124,34.769436 56.570908,34.122276 56.792023,33.005249 
	C57.167767,31.107086 56.048519,28.912985 54.869102,26.534395 
z"/>
<path fill="#3CB5FF" opacity="1.000000" stroke="none" 
	d="
M84.731888,38.390190 
	C84.659393,34.557835 84.659393,31.106979 84.659393,27.665644 
	C94.733284,27.629171 95.849380,28.681450 93.842712,36.088577 
	C91.191475,37.794209 88.653580,39.175667 85.478012,40.904236 
	C85.452019,40.821945 85.128204,39.796822 84.731888,38.390190 
M89.707504,29.387503 
	C89.057716,30.951550 88.407928,32.515594 87.758141,34.079643 
	C88.904022,34.274086 90.049911,34.468533 91.195793,34.662979 
	C90.939522,32.943611 90.683258,31.224243 89.707504,29.387503 
z"/>
<path fill="#45B9FF" opacity="1.000000" stroke="none" 
	d="
M74.600830,36.572197 
	C73.910225,34.782810 72.733589,32.730850 73.327950,31.711170 
	C74.417053,29.842682 76.381111,27.623493 78.288216,27.284981 
	C81.518524,26.711599 82.806656,29.244064 82.615807,32.671261 
	C80.544220,32.905956 78.519371,33.135357 76.494522,33.364758 
	C76.491104,33.797680 76.487686,34.230606 76.484276,34.663528 
	C77.698830,34.663528 78.913750,34.682571 80.127884,34.659744 
	C83.078339,34.604271 82.298759,35.815887 80.757500,37.460892 
	C78.643127,37.398216 76.778305,37.086693 74.600830,36.572197 
z"/>
<path fill="#45B9FF" opacity="1.000000" stroke="none" 
	d="
M63.600983,36.572014 
	C62.910423,34.782539 61.733772,32.730556 62.328133,31.710876 
	C63.417213,29.842468 65.381317,27.623390 67.288361,27.284966 
	C70.518600,26.711729 71.806702,29.244143 71.615761,32.671257 
	C69.547623,32.905563 67.528244,33.134342 65.508858,33.363121 
	C65.500664,33.796600 65.492470,34.230076 65.484276,34.663555 
	C66.698814,34.663555 67.913719,34.682625 69.127831,34.659767 
	C72.078415,34.604214 71.298485,35.815918 69.757462,37.460838 
	C67.643150,37.398151 65.778374,37.086605 63.600983,36.572014 
z"/>
<path fill="#41B7FF" opacity="1.000000" stroke="none" 
	d="
M103.433960,36.852329 
	C100.549690,33.592884 99.751999,29.915268 102.120354,26.720705 
	C103.305473,25.122139 106.224106,24.444849 108.465012,24.144779 
	C109.603653,23.992306 110.977821,25.598633 112.135056,26.339186 
	C109.027382,27.166653 106.318581,27.364986 104.357056,28.678904 
	C103.617981,29.173969 104.000259,33.399307 104.945930,33.901802 
	C106.630867,34.797108 109.133499,34.153549 111.957909,34.153549 
	C111.461899,34.958916 110.762383,36.094700 109.796417,37.478745 
	C107.616608,37.475243 105.703247,37.223476 103.433960,36.852329 
z"/>
<path fill="#3CB5FF" opacity="1.000000" stroke="none" 
	d="
M131.432205,36.973694 
	C131.152634,34.220776 130.926056,31.421839 131.602997,28.861807 
	C131.837540,27.974773 134.405975,27.085770 135.739136,27.291981 
	C136.940994,27.477888 138.322067,28.976841 138.879501,30.228346 
	C139.567596,31.773224 139.485962,33.660946 140.022293,35.699810 
	C137.485107,36.339897 134.662552,36.680695 131.432205,36.973694 
M133.678299,31.131517 
	C134.332123,30.968971 134.985931,30.806425 135.639755,30.643879 
	C135.570862,30.386288 135.501968,30.128695 135.433075,29.871103 
	C134.702560,30.085552 133.972046,30.300003 133.678299,31.131517 
z"/>
<path fill="#45B9FF" opacity="1.000000" stroke="none" 
	d="
M121.419510,36.874062 
	C120.668411,35.171890 119.958542,33.597946 119.924515,32.009518 
	C119.855682,28.796972 121.727127,26.942263 124.905724,27.137482 
	C128.140640,27.336157 129.488892,29.308596 128.783432,32.780140 
	C126.883911,32.973064 125.105537,33.153683 123.327164,33.334301 
	C123.275681,33.703766 123.224190,34.073231 123.172707,34.442699 
	C124.826988,34.651848 126.481277,34.861000 128.579102,35.126225 
	C128.063583,35.930775 127.618729,36.625042 126.937302,37.581940 
	C125.056000,37.561623 123.411263,37.278679 121.419510,36.874062 
z"/>
<path fill="#48BAFF" opacity="1.000000" stroke="none" 
	d="
M116.427292,37.920143 
	C112.501045,33.189152 114.353394,28.220467 114.693687,23.312300 
	C115.175430,23.259657 115.657181,23.207014 116.138931,23.154371 
	C116.931824,27.767996 117.724716,32.381618 118.476624,37.343636 
	C117.863136,37.762043 117.290627,37.832066 116.427292,37.920143 
z"/>
<path fill="#4DBCFF" opacity="1.000000" stroke="none" 
	d="
M144.035751,27.726727 
	C151.033020,26.346512 151.491043,26.961962 150.812347,37.418018 
	C149.988754,37.669682 149.282532,37.493408 148.385925,36.700317 
	C147.147369,34.097099 150.768555,29.646711 144.953064,29.874783 
	C144.582031,28.992407 144.308884,28.359568 144.035751,27.726727 
z"/>
<path fill="#48BAFF" opacity="1.000000" stroke="none" 
	d="
M143.668503,27.550350 
	C144.308884,28.359568 144.582031,28.992407 144.894806,30.297785 
	C144.900192,32.962006 144.865952,34.953690 144.831696,36.945370 
	C143.870743,36.830456 142.909805,36.715546 141.854614,36.304878 
	C142.273987,33.130737 142.787613,30.252356 143.668503,27.550350 
z"/>
<path fill="#E4F5FF" opacity="1.000000" stroke="none" 
	d="
M145.108917,37.048042 
	C144.865952,34.953690 144.900192,32.962006 144.992706,30.547321 
	C150.768555,29.646711 147.147369,34.097099 148.176270,36.516220 
	C147.233353,37.016193 146.309753,37.083454 145.108917,37.048042 
z"/>
<path fill="#D7F0FF" opacity="1.000000" stroke="none" 
	d="
M38.719131,25.518234 
	C39.393528,29.364557 40.720650,33.016296 40.172352,36.360561 
	C38.965897,43.719234 34.599892,47.191212 27.347193,47.937801 
	C22.407413,48.446297 16.237700,45.187435 13.944895,40.858665 
	C11.236793,35.745823 12.074666,26.362112 16.029421,22.640554 
	C20.412930,18.515526 33.538860,16.850033 38.719131,25.518234 
M17.064642,27.119022 
	C16.474024,27.653852 15.414532,28.149904 15.366589,28.729612 
	C14.964606,33.590218 13.664857,38.709740 18.123404,42.588524 
	C22.404474,46.312904 27.516747,45.731052 32.171101,44.216251 
	C38.338829,42.208908 40.320431,33.358128 35.986973,28.196440 
	C36.006481,24.410753 34.059605,22.815134 30.356489,22.970196 
	C27.705006,23.081226 25.042322,23.086180 22.390526,22.984636 
	C19.537109,22.875378 18.017456,24.126200 17.064642,27.119022 
z"/>
<path fill="#D2EEFF" opacity="1.000000" stroke="none" 
	d="
M55.213318,26.688824 
	C56.048519,28.912985 57.167767,31.107086 56.792023,33.005249 
	C56.570908,34.122276 53.976124,34.769436 51.870018,35.059002 
	C53.048882,32.044830 47.247395,26.913120 55.213318,26.688824 
z"/>
<path fill="#CCEBFF" opacity="1.000000" stroke="none" 
	d="
M90.067245,29.446190 
	C90.683258,31.224243 90.939522,32.943611 91.195793,34.662979 
	C90.049911,34.468533 88.904022,34.274086 87.758141,34.079643 
	C88.407928,32.515594 89.057716,30.951550 90.067245,29.446190 
z"/>
<path fill="#E4F5FF" opacity="1.000000" stroke="none" 
	d="
M133.459915,30.822987 
	C133.972046,30.300003 134.702560,30.085552 135.433075,29.871103 
	C135.501968,30.128695 135.570862,30.386288 135.639755,30.643879 
	C134.985931,30.806425 134.332123,30.968971 133.459915,30.822987 
z"/>
<path fill="#65C4FF" opacity="1.000000" stroke="none" 
	d="
M17.796677,26.965918 
	C18.017456,24.126200 19.537109,22.875378 22.390526,22.984636 
	C25.042322,23.086180 27.705006,23.081226 30.356489,22.970196 
	C34.059605,22.815134 36.006481,24.410753 35.981873,29.033581 
	C35.341389,32.604496 34.706005,35.338268 33.911423,37.744453 
	C31.939432,33.422047 28.613649,32.831375 24.707537,33.187820 
	C23.844597,33.266563 22.896738,32.414707 22.113260,31.936956 
	C22.161943,31.925631 22.085348,31.968714 21.623774,32.095482 
	C20.804403,34.817497 20.370010,37.455826 19.545143,39.982647 
	C18.702003,35.569401 18.249340,31.267660 17.796677,26.965918 
z"/>
<path fill="#C3E8FF" opacity="1.000000" stroke="none" 
	d="
M34.070625,38.072044 
	C34.706005,35.338268 35.341389,32.604496 36.021812,29.429600 
	C40.320431,33.358128 38.338829,42.208908 32.171101,44.216251 
	C27.516747,45.731052 22.404474,46.312904 18.123404,42.588524 
	C13.664857,38.709740 14.964606,33.590218 15.366589,28.729612 
	C15.414532,28.149904 16.474024,27.653852 17.430660,27.042469 
	C18.249340,31.267660 18.702003,35.569401 19.696594,40.162254 
	C20.474352,40.661869 20.728090,40.845654 21.093910,41.392502 
	C24.911573,43.307110 28.619884,44.607582 32.274178,40.882797 
	C33.053871,39.830917 33.562248,38.951481 34.070625,38.072044 
z"/>
<path fill="#38B3FF" opacity="1.000000" stroke="none" 
	d="
M20.999735,41.004715 
	C20.728090,40.845654 20.474352,40.661869 20.087070,40.273758 
	C20.370010,37.455826 20.804403,34.817497 21.619352,32.089630 
	C21.999908,32.000084 21.987982,31.991367 21.987982,31.991367 
	C22.896738,32.414707 23.844597,33.266563 24.707537,33.187820 
	C28.613649,32.831375 31.939432,33.422047 33.911427,37.744453 
	C33.562248,38.951481 33.053871,39.830917 31.817478,40.840916 
	C27.726215,40.982559 24.362976,40.993637 20.999735,41.004715 
z"/>
<path fill="#38B3FF" opacity="1.000000" stroke="none" 
	d="
M22.004330,32.005939 
	C22.085348,31.968714 22.161943,31.925631 22.113260,31.936958 
	C21.987982,31.991367 21.999908,32.000084 22.004330,32.005939 
z"/>
<path fill="#B8E4FF" opacity="1.000000" stroke="none" 
	d="
M21.093910,41.392502 
	C24.362976,40.993637 27.726215,40.982559 31.546154,41.013359 
	C28.619884,44.607582 24.911573,43.307110 21.093910,41.392502 
z"/>
</svg>