<svg version="1.1" id="Layer_1" xmlns="http://www.w3.org/2000/svg" xmlns:xlink="http://www.w3.org/1999/xlink" x="0px" y="0px"
	 width="100%" viewBox="0 0 179 53" enable-background="new 0 0 179 53" xml:space="preserve">
<path fill="#F2EFFF" opacity="1.000000" stroke="none" 
	d="
M18.000000,1.000000 
	C64.354225,1.000000 110.708458,1.000000 157.583160,1.340061 
	C159.110809,2.478423 160.064362,3.358166 161.133591,4.062227 
	C170.196930,10.030154 173.746704,19.212318 170.931503,29.512842 
	C168.679047,37.754333 159.466995,44.936092 150.393631,44.955494 
	C107.799126,45.046581 65.203873,45.093979 22.610073,44.898560 
	C15.707637,44.866890 9.617983,41.877411 5.914565,35.663906 
	C3.921853,32.320576 2.615850,28.567949 1.000000,25.000000 
	C1.000000,23.933331 1.000000,22.866661 1.272404,21.163593 
	C4.079486,15.808698 6.119799,10.711989 9.332706,6.512372 
	C11.286109,3.959064 15.049614,2.790569 18.000000,1.000000 
M80.656380,27.589701 
	C80.263611,25.511543 80.233566,23.261906 79.358810,21.411617 
	C78.705093,20.028870 77.066101,18.459761 75.675034,18.252144 
	C74.131691,18.021801 72.371559,19.243954 70.705826,19.833664 
	C70.878220,20.325069 71.050613,20.816475 71.223007,21.307880 
	C72.653000,21.307880 74.082985,21.307880 75.512978,21.307880 
	C74.514870,22.484787 73.124954,22.714964 72.292297,23.520880 
	C71.344063,24.438660 70.083054,26.208334 70.413582,27.000099 
	C70.924332,28.223598 72.599266,29.569298 73.909492,29.716751 
	C76.216080,29.976332 78.620102,29.370184 81.607597,29.548271 
	C83.310387,28.664103 85.013184,27.779936 86.588242,26.962093 
	C87.555801,27.862736 88.707573,28.934837 89.929619,30.072363 
	C89.929619,25.732405 89.929619,22.107836 89.929619,17.906868 
	C88.732941,18.858633 87.586227,19.770664 86.535622,20.606253 
	C85.231125,19.761805 83.958900,18.938238 82.686668,18.114674 
	C83.359367,22.251204 85.148293,25.715481 80.656380,27.589701 
M26.661547,36.337841 
	C23.933224,36.756332 21.204901,37.174824 18.476576,37.593315 
	C22.980249,40.441017 27.283819,40.816742 31.857416,38.081600 
	C30.571112,37.066559 29.690815,36.371906 29.282734,35.163582 
	C29.966818,32.848282 30.650900,30.532980 31.162752,28.800600 
	C33.778442,28.800600 36.410355,28.800600 39.042267,28.800600 
	C36.966869,26.451046 34.891468,24.101490 33.139668,22.118279 
	C33.697891,21.890581 35.704144,21.509180 37.079048,20.367472 
	C38.102951,19.517235 38.309677,17.682911 38.880341,16.286863 
	C37.410542,16.194315 35.873680,15.796833 34.491112,16.100912 
	C33.276474,16.368055 32.234676,17.421072 30.899277,17.901760 
	C30.899277,17.901760 30.680071,17.678415 30.665417,16.890102 
	C30.728592,15.901256 31.174973,14.702372 30.772785,13.968595 
	C30.006256,12.570090 28.755438,11.437027 27.705685,10.193760 
	C27.004589,11.541819 25.967531,12.825588 25.693918,14.255447 
	C25.402014,15.780892 25.831457,17.444370 25.958170,19.218092 
	C24.185629,17.947659 22.759644,16.508669 21.035231,15.844521 
	C19.984426,15.439808 18.473854,16.228844 17.169798,16.481680 
	C17.541349,17.642914 17.573441,19.192451 18.359451,19.879585 
	C19.735558,21.082584 21.574455,21.756205 22.399780,22.205448 
	C20.670647,24.245770 18.823000,26.425934 16.975355,28.606098 
	C19.503658,28.820879 22.031960,29.035660 24.179781,29.218119 
	C25.090757,31.165663 26.145456,33.420467 26.661547,36.337841 
M67.788269,19.680914 
	C67.088951,18.093996 66.389633,16.507080 65.690323,14.920163 
	C64.517136,16.269453 63.141056,17.495939 62.228767,19.003151 
	C61.345951,20.461683 60.940468,22.209139 59.907936,24.929281 
	C58.642307,21.460831 57.996105,19.085535 56.891960,16.946642 
	C56.417107,16.026781 54.940853,15.038721 54.015823,15.124146 
	C53.294090,15.190798 52.245869,16.832537 52.170216,17.836687 
	C51.933228,20.982300 51.997890,24.161757 52.150234,27.318230 
	C52.191357,28.170223 52.958416,28.987181 53.392258,29.820219 
	C53.806824,29.736767 54.221390,29.653313 54.635956,29.569859 
	C54.844749,27.058348 55.053543,24.546835 55.304417,21.529167 
	C56.750294,24.579685 58.012707,27.243120 59.913296,31.252987 
	C61.578392,27.791040 62.565849,25.737989 63.635101,23.514879 
	C64.321815,25.846109 64.902596,27.817722 65.483368,29.789335 
	C66.251526,29.700062 67.019684,29.610786 67.787842,29.521513 
	C67.787842,26.545322 67.787842,23.569132 67.788269,19.680914 
M140.124908,19.664352 
	C140.124908,22.988800 140.124908,26.313246 140.124908,29.637693 
	C140.869080,29.749109 141.613251,29.860523 142.357437,29.971939 
	C143.243347,26.933685 144.129257,23.895432 145.097260,20.575607 
	C149.131912,23.054304 144.770081,28.647532 149.991241,29.711349 
	C152.030014,22.080378 151.380051,20.541979 145.264343,17.959234 
	C144.839081,17.779642 144.417160,17.516373 144.090179,17.194098 
	C143.107254,16.225267 142.172119,15.207958 141.218323,14.209560 
	C140.853989,15.720196 140.489655,17.230831 140.124908,19.664352 
M107.874588,15.570844 
	C101.284157,12.221869 98.158272,13.827341 98.144867,20.569183 
	C98.141907,22.059605 97.940994,23.586340 98.198799,25.030750 
	C98.484383,26.630783 99.191628,28.155560 99.715256,29.713104 
	C100.497902,28.185839 101.275986,26.656195 102.067284,25.133421 
	C102.215805,24.847601 102.417198,24.589251 102.472755,24.504179 
	C104.302895,23.882637 105.946457,23.324461 107.590019,22.766283 
	C107.528961,22.375074 107.467903,21.983866 107.406845,21.592657 
	C105.633919,21.170813 103.860985,20.748968 102.088058,20.327122 
	C101.977882,19.957069 101.867699,19.587015 101.757523,19.216963 
	C103.801208,18.265596 105.844887,17.314228 107.874588,15.570844 
M126.923347,19.670963 
	C122.573402,17.176189 119.536278,17.761595 117.937111,21.403069 
	C116.506805,24.660030 118.033340,28.390007 121.263054,29.529785 
	C124.279724,30.594379 125.789116,29.789103 126.612656,26.716877 
	C124.881943,26.602882 123.136459,26.487915 120.508316,26.314812 
	C123.450317,23.718500 129.926346,27.206772 126.923347,19.670963 
M138.453583,26.448248 
	C136.975433,24.698915 135.497284,22.949583 134.098572,21.294256 
	C134.989670,21.020237 136.332336,20.607361 137.675003,20.194483 
	C137.551544,19.528893 137.428101,18.863302 137.304642,18.197714 
	C135.053879,18.592659 131.790131,18.192848 130.740768,19.530363 
	C127.487526,23.676949 132.745636,24.381428 135.119370,26.791748 
	C132.951050,26.791748 131.501740,26.791748 129.791809,26.791748 
	C132.613632,31.004812 134.635239,30.987715 138.453583,26.448248 
M112.913528,27.199465 
	C113.827644,24.474133 114.741760,21.748800 115.752914,18.734169 
	C114.668114,18.734169 112.607269,18.734169 109.907097,18.734169 
	C109.907097,21.612411 109.703293,24.534056 109.968468,27.412493 
	C110.200813,29.934454 111.235916,31.036896 112.913528,27.199465 
z"/>
<path fill="#FFFFFF" opacity="1.000000" stroke="none" 
	d="
M1.000000,25.468658 
	C2.615850,28.567949 3.921853,32.320576 5.914565,35.663906 
	C9.617983,41.877411 15.707637,44.866890 22.610073,44.898560 
	C65.203873,45.093979 107.799126,45.046581 150.393631,44.955494 
	C159.466995,44.936092 168.679047,37.754333 170.931503,29.512842 
	C173.746704,19.212318 170.196930,10.030154 161.133591,4.062227 
	C160.064362,3.358166 159.110809,2.478423 158.051819,1.340061 
	C165.287842,1.000000 172.575684,1.000000 180.000000,1.000000 
	C180.000000,17.020672 180.000000,33.041676 179.682297,49.323895 
	C178.803894,47.328857 178.454544,44.988998 177.606842,42.846279 
	C177.057739,41.458279 175.780426,40.358364 174.829391,39.129368 
	C173.794617,40.083546 172.761688,41.039730 171.724594,41.991386 
	C170.385101,43.220539 169.113571,44.537285 167.685532,45.653507 
	C165.006226,47.747749 165.138367,49.672447 168.330551,50.606369 
	C172.128708,51.717571 176.102371,52.228806 180.000000,53.000000 
	C179.501755,53.333336 179.003708,53.958279 178.505219,53.958645 
	C119.336807,54.002457 60.168362,54.000000 1.000000,54.000000 
	C1.000000,44.564816 1.000000,35.251064 1.000000,25.468658 
z"/>
<path fill="#927EFF" opacity="1.000000" stroke="none" 
	d="
M180.000000,52.625000 
	C176.102371,52.228806 172.128708,51.717571 168.330551,50.606369 
	C165.138367,49.672447 165.006226,47.747749 167.685532,45.653507 
	C169.113571,44.537285 170.385101,43.220539 171.724594,41.991386 
	C172.761688,41.039730 173.794617,40.083546 174.829391,39.129368 
	C175.780426,40.358364 177.057739,41.458279 177.606842,42.846279 
	C178.454544,44.988998 178.803894,47.328857 179.682297,49.792553 
	C180.000000,50.750000 180.000000,51.500000 180.000000,52.625000 
z"/>
<path fill="#FFFFFF" opacity="1.000000" stroke="none" 
	d="
M17.529547,1.000000 
	C15.049614,2.790569 11.286109,3.959064 9.332706,6.512372 
	C6.119799,10.711989 4.079486,15.808698 1.272404,20.763596 
	C1.000000,14.413864 1.000000,7.827729 1.000000,1.000000 
	C6.350632,1.000000 11.704863,1.000000 17.529547,1.000000 
z"/>
<path fill="#836DFF" opacity="1.000000" stroke="none" 
	d="
M31.116541,18.126997 
	C32.234676,17.421072 33.276474,16.368055 34.491112,16.100912 
	C35.873680,15.796833 37.410542,16.194315 38.880341,16.286863 
	C38.309677,17.682911 38.102951,19.517235 37.079048,20.367472 
	C35.704144,21.509180 33.697891,21.890581 33.139668,22.118279 
	C34.891468,24.101490 36.966869,26.451046 39.042267,28.800600 
	C36.410355,28.800600 33.778442,28.800600 31.162752,28.800600 
	C30.650900,30.532980 29.966818,32.848282 28.778574,35.427750 
	C27.916327,35.686371 27.558241,35.680820 27.200153,35.675270 
	C26.145456,33.420467 25.090757,31.165663 24.179781,29.218119 
	C22.031960,29.035660 19.503658,28.820879 16.975355,28.606098 
	C18.823000,26.425934 20.670647,24.245770 22.399780,22.205448 
	C21.574455,21.756205 19.735558,21.082584 18.359451,19.879585 
	C17.573441,19.192451 17.541349,17.642914 17.169798,16.481680 
	C18.473854,16.228844 19.984426,15.439808 21.035231,15.844521 
	C22.759644,16.508669 24.185629,17.947659 25.958170,19.218092 
	C25.831457,17.444370 25.402014,15.780892 25.693918,14.255447 
	C25.967531,12.825588 27.004589,11.541819 27.705685,10.193760 
	C28.755438,11.437027 30.006256,12.570090 30.772785,13.968595 
	C31.174973,14.702372 30.728592,15.901256 30.506897,17.427601 
	C30.411774,18.212107 30.475170,18.459112 30.538567,18.706118 
	C30.731224,18.513077 30.923882,18.320036 31.116541,18.126997 
M28.260027,24.692385 
	C28.634991,23.949646 29.009953,23.206907 29.384916,22.464169 
	C28.889832,22.328329 28.394749,22.192492 27.899666,22.056654 
	C27.828444,22.991465 27.757223,23.926277 28.260027,24.692385 
z"/>
<path fill="#9785FF" opacity="1.000000" stroke="none" 
	d="
M67.788055,20.136929 
	C67.787842,23.569132 67.787842,26.545322 67.787842,29.521513 
	C67.019684,29.610786 66.251526,29.700062 65.483368,29.789335 
	C64.902596,27.817722 64.321815,25.846109 63.635101,23.514879 
	C62.565849,25.737989 61.578392,27.791040 59.913296,31.252987 
	C58.012707,27.243120 56.750294,24.579685 55.304417,21.529167 
	C55.053543,24.546835 54.844749,27.058348 54.635956,29.569859 
	C54.221390,29.653313 53.806824,29.736767 53.392258,29.820219 
	C52.958416,28.987181 52.191357,28.170223 52.150234,27.318230 
	C51.997890,24.161757 51.933228,20.982300 52.170216,17.836687 
	C52.245869,16.832537 53.294090,15.190798 54.015823,15.124146 
	C54.940853,15.038721 56.417107,16.026781 56.891960,16.946642 
	C57.996105,19.085535 58.642307,21.460831 59.907936,24.929281 
	C60.940468,22.209139 61.345951,20.461683 62.228767,19.003151 
	C63.141056,17.495939 64.517136,16.269453 65.690323,14.920164 
	C66.389633,16.507080 67.088951,18.093996 67.788055,20.136929 
z"/>
<path fill="#9F8EFF" opacity="1.000000" stroke="none" 
	d="
M140.125107,19.202909 
	C140.489655,17.230831 140.853989,15.720196 141.218323,14.209562 
	C142.172119,15.207958 143.107254,16.225267 144.090179,17.194098 
	C144.417160,17.516373 144.839081,17.779642 145.264343,17.959234 
	C151.380051,20.541979 152.030014,22.080378 149.991241,29.711349 
	C144.770081,28.647532 149.131912,23.054304 145.097260,20.575607 
	C144.129257,23.895432 143.243347,26.933685 142.357437,29.971939 
	C141.613251,29.860523 140.869080,29.749109 140.124908,29.637693 
	C140.124908,26.313246 140.124908,22.988800 140.125107,19.202909 
z"/>
<path fill="#A190FF" opacity="1.000000" stroke="none" 
	d="
M107.881577,15.966852 
	C105.844887,17.314228 103.801208,18.265596 101.757523,19.216963 
	C101.867699,19.587015 101.977882,19.957069 102.088058,20.327122 
	C103.860985,20.748968 105.633919,21.170813 107.406845,21.592657 
	C107.467903,21.983866 107.528961,22.375074 107.590019,22.766283 
	C105.946457,23.324461 104.302895,23.882637 102.472755,24.504179 
	C102.417198,24.589251 102.215805,24.847601 102.067284,25.133421 
	C101.275986,26.656195 100.497902,28.185839 99.715256,29.713104 
	C99.191628,28.155560 98.484383,26.630783 98.198799,25.030750 
	C97.940994,23.586340 98.141907,22.059605 98.144867,20.569183 
	C98.158272,13.827341 101.284157,12.221869 107.881577,15.966852 
z"/>
<path fill="#9B8AFF" opacity="1.000000" stroke="none" 
	d="
M80.983322,29.126541 
	C78.620102,29.370184 76.216080,29.976332 73.909492,29.716751 
	C72.599266,29.569298 70.924332,28.223598 70.413582,27.000099 
	C70.083054,26.208334 71.344063,24.438660 72.292297,23.520880 
	C73.124954,22.714964 74.514870,22.484787 75.512978,21.307880 
	C74.082985,21.307880 72.653000,21.307880 71.223007,21.307880 
	C71.050613,20.816475 70.878220,20.325069 70.705826,19.833664 
	C72.371559,19.243954 74.131691,18.021801 75.675034,18.252144 
	C77.066101,18.459761 78.705093,20.028870 79.358810,21.411617 
	C80.233566,23.261906 80.263611,25.511543 80.816162,28.106329 
	C80.995071,28.790579 80.997536,28.958439 80.983322,29.126541 
z"/>
<path fill="#9B89FF" opacity="1.000000" stroke="none" 
	d="
M127.148880,20.002388 
	C129.926346,27.206772 123.450317,23.718500 120.508316,26.314812 
	C123.136459,26.487915 124.881943,26.602882 126.612656,26.716877 
	C125.789116,29.789103 124.279724,30.594379 121.263054,29.529785 
	C118.033340,28.390007 116.506805,24.660030 117.937111,21.403069 
	C119.536278,17.761595 122.573402,17.176189 127.148880,20.002388 
z"/>
<path fill="#9B89FF" opacity="1.000000" stroke="none" 
	d="
M138.349487,26.784660 
	C134.635239,30.987715 132.613632,31.004812 129.791809,26.791748 
	C131.501740,26.791748 132.951050,26.791748 135.119370,26.791748 
	C132.745636,24.381428 127.487526,23.676949 130.740768,19.530363 
	C131.790131,18.192848 135.053879,18.592659 137.304642,18.197714 
	C137.428101,18.863302 137.551544,19.528893 137.675003,20.194483 
	C136.332336,20.607361 134.989670,21.020237 134.098572,21.294256 
	C135.497284,22.949583 136.975433,24.698915 138.349487,26.784660 
z"/>
<path fill="#9A89FF" opacity="1.000000" stroke="none" 
	d="
M81.295456,29.337406 
	C80.997536,28.958439 80.995071,28.790579 80.953156,28.495972 
	C85.148293,25.715481 83.359367,22.251204 82.686668,18.114674 
	C83.958900,18.938238 85.231125,19.761805 86.535622,20.606253 
	C87.586227,19.770664 88.732941,18.858633 89.929619,17.906868 
	C89.929619,22.107836 89.929619,25.732405 89.929619,30.072363 
	C88.707573,28.934837 87.555801,27.862736 86.588242,26.962093 
	C85.013184,27.779936 83.310387,28.664103 81.295456,29.337406 
z"/>
<path fill="#9D8CFF" opacity="1.000000" stroke="none" 
	d="
M112.893448,27.607553 
	C111.235916,31.036896 110.200813,29.934454 109.968468,27.412493 
	C109.703293,24.534056 109.907097,21.612411 109.907097,18.734169 
	C112.607269,18.734169 114.668114,18.734169 115.752914,18.734169 
	C114.741760,21.748800 113.827644,24.474133 112.893448,27.607553 
z"/>
<path fill="#EBE8FF" opacity="1.000000" stroke="none" 
	d="
M26.930851,36.006554 
	C27.558241,35.680820 27.916327,35.686371 28.542467,35.684586 
	C29.690815,36.371906 30.571112,37.066559 31.857416,38.081600 
	C27.283819,40.816742 22.980249,40.441017 18.476576,37.593315 
	C21.204901,37.174824 23.933224,36.756332 26.930851,36.006554 
z"/>
<path fill="#8570FF" opacity="1.000000" stroke="none" 
	d="
M27.973015,24.776737 
	C27.757223,23.926277 27.828444,22.991465 27.899666,22.056654 
	C28.394749,22.192492 28.889832,22.328329 29.384916,22.464169 
	C29.009953,23.206907 28.634991,23.949646 27.973015,24.776737 
z"/>
<path fill="#F2EFFF" opacity="1.000000" stroke="none" 
	d="
M31.007908,18.014378 
	C30.923882,18.320036 30.731224,18.513077 30.538567,18.706118 
	C30.475170,18.459112 30.411774,18.212107 30.514225,17.821758 
	C30.680071,17.678415 30.899277,17.901760 31.007908,18.014378 
z"/>
</svg>