<svg version="1.1" id="Layer_1" xmlns="http://www.w3.org/2000/svg" xmlns:xlink="http://www.w3.org/1999/xlink" x="0px" y="0px"
	 width="100%" viewBox="0 0 190 52" enable-background="new 0 0 190 52" xml:space="preserve">
<path fill="#FFF1EF" opacity="1.000000" stroke="none" 
	d="
M26.000000,1.000000 
	C75.020897,1.000000 124.041786,1.000000 173.740570,1.274733 
	C178.267715,4.202024 182.667435,6.338083 185.793182,9.669483 
	C188.324036,12.366846 189.322067,16.502378 191.000000,20.000000 
	C191.000000,21.714357 191.000000,23.428717 190.731873,25.802704 
	C187.613190,37.175980 181.045670,44.719975 169.740189,44.821613 
	C123.319641,45.238930 76.892105,45.159260 30.469715,44.861622 
	C21.063105,44.801308 14.054912,39.445328 10.871320,30.436575 
	C8.524895,23.796787 9.365699,12.913949 16.141693,7.456623 
	C19.186279,5.004541 22.699453,3.134272 26.000000,1.000000 
M111.992416,27.757793 
	C112.719955,28.039358 113.447502,28.320923 114.791420,28.707949 
	C115.194290,28.814571 115.597160,28.921194 116.176765,29.773090 
	C118.790329,31.283630 121.378426,32.631561 123.856697,28.688475 
	C125.295738,25.824572 126.734779,22.960669 128.437500,19.572014 
	C126.576523,19.572014 124.995987,19.572014 123.193207,19.572014 
	C123.057602,21.106392 122.930161,22.548399 122.281937,24.043861 
	C121.869850,24.327824 121.457771,24.611788 120.230789,24.838400 
	C117.648087,25.660467 114.551170,28.404966 114.376007,23.032118 
	C115.912628,21.939522 117.449249,20.846924 119.723221,19.572174 
	C119.286438,18.476976 119.130775,16.724154 118.365639,16.397074 
	C114.437340,14.717795 111.511871,17.303272 109.954056,23.215399 
	C107.988686,25.835142 109.129578,26.860928 111.990860,27.019098 
	C111.990860,27.019098 111.956200,27.087626 111.992416,27.757793 
M93.070679,18.282612 
	C94.673584,15.359562 92.091522,14.473856 90.459770,14.226562 
	C86.752510,13.664721 87.045280,16.648691 86.236458,19.038992 
	C85.492928,18.980679 84.749397,18.922365 83.854195,18.171932 
	C83.016396,17.416588 82.280632,16.198942 81.322777,15.987535 
	C77.578033,15.161030 73.742264,13.025002 69.193420,16.035549 
	C63.028454,16.387169 62.093575,17.758940 63.723457,22.880449 
	C62.165253,23.911816 59.979195,24.637495 59.274685,26.084503 
	C58.822437,27.013382 60.420902,30.182615 61.330124,30.283945 
	C63.480434,30.523588 65.768036,29.531334 68.631615,28.885208 
	C69.057014,28.804266 69.482407,28.723326 70.331039,29.338646 
	C72.747452,29.764290 75.163872,30.189936 77.502106,30.765476 
	C77.502106,30.765476 77.426216,30.614412 78.394112,30.814678 
	C80.199547,30.876209 82.062454,31.242149 83.794548,30.915171 
	C85.590126,30.576208 87.258965,29.565847 89.400978,28.341410 
	C89.221985,26.225691 89.042984,24.109972 89.521408,21.998262 
	C89.959007,22.001722 90.396599,22.005182 90.938683,22.863317 
	C91.136124,24.818495 91.333565,26.773670 91.531006,28.728848 
	C92.063972,28.709972 92.596939,28.691097 93.129906,28.672224 
	C94.157608,25.489052 94.546669,22.259598 93.070679,18.282612 
M170.000839,18.571491 
	C168.972855,17.741455 167.944870,16.911419 166.916885,16.081388 
	C166.275650,17.004660 165.634399,17.927933 164.299789,18.954952 
	C163.601196,19.013327 162.902603,19.071701 161.595016,18.700027 
	C158.128677,14.857678 156.368149,14.904756 153.434067,19.198282 
	C152.556198,17.937523 151.678329,16.676762 150.939133,15.615159 
	C149.507431,17.373968 148.242279,18.928169 146.604385,19.827448 
	C144.471466,20.245684 142.338547,20.663921 139.536972,21.031651 
	C139.313568,21.024311 139.090149,21.016973 138.760239,20.581263 
	C138.217834,20.724796 137.675430,20.868332 136.301010,21.004379 
	C135.196884,21.003178 134.092758,21.001976 132.778290,20.301319 
	C131.878708,20.332279 130.979111,20.363239 130.079529,20.394196 
	C130.719879,23.241697 131.360214,26.089199 132.162308,29.703020 
	C134.723587,31.115612 137.392349,33.098888 138.679779,28.223036 
	C138.679779,28.223036 138.783401,27.981272 139.557877,27.948278 
	C139.813736,27.921762 140.069595,27.895247 140.991882,28.049753 
	C142.327881,28.360912 143.663895,28.672071 145.118530,29.676395 
	C147.534607,32.489658 148.280930,29.842823 150.090164,28.529526 
	C150.729965,27.497244 151.504883,26.522526 151.975388,25.418119 
	C152.564224,24.035942 152.902924,22.547211 153.349594,21.104477 
	C153.872101,21.192343 154.394608,21.280209 154.917099,21.368073 
	C155.042709,22.911362 154.887253,24.554253 155.387192,25.964876 
	C155.754593,27.001549 156.980133,27.734100 158.024368,29.395668 
	C160.175125,31.884455 162.187546,32.100182 164.652527,28.893610 
	C168.803391,28.856707 167.298355,24.893007 169.374420,22.996170 
	C169.580002,22.997635 169.785599,22.999100 170.087784,23.824497 
	C170.295654,25.463263 170.503540,27.102028 170.711411,28.740795 
	C171.073334,28.752455 171.435242,28.764112 171.797165,28.775772 
	C173.027374,25.774191 174.257599,22.772610 175.659851,19.351254 
	C173.945938,19.351254 172.051865,19.351254 170.000839,18.571491 
M52.657516,31.991098 
	C53.087368,31.658854 53.517220,31.326609 54.048016,30.195404 
	C54.008297,29.122936 53.968578,28.050467 54.100834,26.347523 
	C53.987846,25.938606 53.874859,25.529690 53.598774,24.492540 
	C52.011024,22.957449 50.467808,21.975948 50.513123,18.886316 
	C50.545624,16.670221 46.954628,14.400981 44.387543,11.754484 
	C37.765411,6.485409 31.106258,7.513614 23.920065,10.899447 
	C17.396690,13.972989 18.046789,19.392973 18.003029,24.840277 
	C17.987009,26.834381 17.997774,28.828732 18.001343,30.822958 
	C18.010458,35.917080 20.449942,39.586884 25.276609,40.819233 
	C29.057251,41.784512 33.115322,41.882050 37.057392,41.951149 
	C45.545700,42.099941 48.138294,40.163498 51.519211,32.007023 
	C51.690964,31.959686 51.862713,31.912352 52.657516,31.991098 
M95.995918,24.354603 
	C96.192871,25.818731 96.389824,27.282862 96.586777,28.746990 
	C97.067345,28.761492 97.547905,28.775991 98.028465,28.790491 
	C98.612595,26.396229 99.196716,24.001968 99.780838,21.607706 
	C100.253525,21.632223 100.726212,21.656740 101.198898,21.681257 
	C101.736580,24.051855 102.274254,26.422453 102.811935,28.793051 
	C103.484520,28.687159 104.157104,28.581264 104.829689,28.475372 
	C104.540474,25.737738 105.078964,22.413027 103.690315,20.455208 
	C102.649826,18.988237 99.128281,19.281036 96.360779,18.719130 
	C96.193375,20.901363 96.094765,22.186888 95.995918,24.354603 
z"/>
<path fill="#FFFFFF" opacity="1.000000" stroke="none" 
	d="
M25.531321,1.000000 
	C22.699453,3.134272 19.186279,5.004541 16.141693,7.456623 
	C9.365699,12.913949 8.524895,23.796787 10.871320,30.436575 
	C14.054912,39.445328 21.063105,44.801308 30.469715,44.861622 
	C76.892105,45.159260 123.319641,45.238930 169.740189,44.821613 
	C181.045670,44.719975 187.613190,37.175980 190.731873,26.231167 
	C191.000000,34.981480 191.000000,43.962955 191.000000,53.000000 
	C129.312454,53.000000 67.624878,53.000000 5.671733,52.675201 
	C7.181873,51.916615 9.020431,51.647625 10.715178,51.001457 
	C12.325231,50.387585 13.784861,49.379185 15.310632,48.544262 
	C14.240773,47.257946 13.166494,45.975269 12.102257,44.684319 
	C10.949512,43.286007 9.813085,41.874218 8.657115,40.478596 
	C6.685727,38.098511 5.074910,38.241333 4.001971,41.230103 
	C2.958103,44.137890 1.997285,47.075489 1.000000,50.000000 
	C1.000000,33.763855 1.000000,17.527710 1.000000,1.000000 
	C9.018532,1.000000 17.040586,1.000000 25.531321,1.000000 
z"/>
<path fill="#FF7A65" opacity="1.000000" stroke="none" 
	d="
M1.000000,50.500000 
	C1.997285,47.075489 2.958103,44.137890 4.001971,41.230103 
	C5.074910,38.241333 6.685727,38.098511 8.657115,40.478596 
	C9.813085,41.874218 10.949512,43.286007 12.102257,44.684319 
	C13.166494,45.975269 14.240773,47.257946 15.310632,48.544262 
	C13.784861,49.379185 12.325231,50.387585 10.715178,51.001457 
	C9.020431,51.647625 7.181873,51.916615 5.203075,52.675201 
	C3.748004,52.170658 0.685187,54.962959 1.000000,50.500000 
z"/>
<path fill="#FFFFFF" opacity="1.000000" stroke="none" 
	d="
M191.000000,19.530624 
	C189.322067,16.502378 188.324036,12.366846 185.793182,9.669483 
	C182.667435,6.338083 178.267715,4.202024 174.209229,1.274733 
	C179.596634,1.000000 185.193253,1.000000 191.000000,1.000000 
	C191.000000,7.019274 191.000000,13.040261 191.000000,19.530624 
z"/>
<path fill="#FFEDE9" opacity="1.000000" stroke="none" 
	d="
M51.006996,32.159725 
	C48.138294,40.163498 45.545700,42.099941 37.057392,41.951149 
	C33.115322,41.882050 29.057251,41.784512 25.276609,40.819233 
	C20.449942,39.586884 18.010458,35.917080 18.001343,30.822958 
	C17.997774,28.828732 17.987009,26.834381 18.003029,24.840277 
	C18.046789,19.392973 17.396690,13.972989 23.920065,10.899447 
	C31.106258,7.513614 37.765411,6.485409 44.403130,12.192335 
	C40.939175,13.141717 37.459633,13.653246 33.619514,14.100691 
	C32.533474,13.969487 31.808004,13.902369 31.020998,13.539995 
	C29.993965,13.161711 29.028467,13.078680 27.768841,13.108821 
	C27.355934,13.812164 27.237158,14.402337 26.958687,15.287094 
	C26.206795,16.203039 25.614597,16.824400 24.980999,17.737736 
	C24.968206,18.618481 24.996815,19.207253 24.751492,19.973652 
	C23.959406,20.812450 23.441248,21.473621 22.686428,22.297548 
	C22.344772,22.989225 22.239780,23.518147 22.016411,24.299307 
	C21.659899,25.024927 21.421764,25.498308 21.113701,26.359695 
	C21.448301,28.180731 21.852827,29.613760 22.459097,31.383007 
	C25.137981,31.773006 27.615124,31.826794 30.532742,31.927511 
	C37.651142,32.036205 44.329071,32.097965 51.006996,32.159725 
M37.913685,34.145157 
	C34.126068,34.415672 30.338448,34.686184 25.482063,35.033031 
	C30.542898,39.023392 39.195480,38.880386 42.504215,35.527412 
	C41.172939,35.130833 39.939468,34.763390 37.913685,34.145157 
z"/>
<path fill="#FB745E" opacity="1.000000" stroke="none" 
	d="
M33.980087,14.164776 
	C37.459633,13.653246 40.939175,13.141717 44.699455,12.392818 
	C46.954628,14.400981 50.545624,16.670221 50.513123,18.886316 
	C50.467808,21.975948 52.011024,22.957449 53.494232,24.956402 
	C53.569412,25.939508 53.749134,26.458754 53.928856,26.977999 
	C53.968578,28.050467 54.008297,29.122936 53.721096,30.615017 
	C52.940937,31.311426 52.487698,31.588221 52.034458,31.865017 
	C51.862713,31.912352 51.690964,31.959686 51.263103,32.083374 
	C44.329071,32.097965 37.651142,32.036205 30.516083,31.586136 
	C30.375750,30.460001 30.692549,29.722172 31.169168,29.308113 
	C32.662224,29.456005 33.995457,29.280128 35.556175,28.865705 
	C35.946705,27.757528 36.109756,26.887897 36.610207,25.925661 
	C39.087730,24.927063 41.227856,24.021069 43.367985,23.115074 
	C43.343407,22.913616 43.318832,22.712156 43.294258,22.510696 
	C40.530476,23.005188 37.766693,23.499678 34.758125,23.946833 
	C34.513332,23.899498 34.028229,23.784069 34.020031,23.586514 
	C34.011833,23.388960 33.997227,22.993782 34.015465,22.555126 
	C33.994221,19.798576 33.954742,17.480682 33.940578,14.913877 
	C33.970627,14.498236 33.975357,14.331505 33.980087,14.164776 
z"/>
<path fill="#FFEDE9" opacity="1.000000" stroke="none" 
	d="
M77.580284,30.615582 
	C75.163872,30.189936 72.747452,29.764290 70.366920,28.742960 
	C75.829338,22.102663 68.391251,21.888090 65.241135,18.681112 
	C67.912163,18.681112 69.460182,18.681112 71.797119,18.681112 
	C70.859840,17.309235 70.429962,16.680027 70.000076,16.050823 
	C73.742264,13.025002 77.578033,15.161030 81.322777,15.987535 
	C82.280632,16.198942 83.016396,17.416588 83.626572,18.637146 
	C82.693703,19.724712 81.988472,20.347065 80.707603,21.477409 
	C82.963272,21.477409 84.240387,21.477409 86.711311,21.477409 
	C85.123367,22.348330 84.484291,22.531296 84.090706,22.946800 
	C83.005402,24.092533 82.022812,25.335562 80.999596,26.540110 
	C82.402527,27.149481 83.766029,27.889957 85.220665,28.327398 
	C86.418800,28.687700 87.724953,28.688829 88.983231,28.849136 
	C87.258965,29.565847 85.590126,30.576208 83.794548,30.915171 
	C82.062454,31.242149 80.199547,30.876209 77.929871,30.681114 
	C77.465630,30.547552 77.580284,30.615582 77.580284,30.615582 
M74.465263,24.988243 
	C75.013008,28.190233 76.441650,29.611588 80.437782,27.678902 
	C76.029549,25.018175 75.746964,22.440516 79.753906,19.993032 
	C78.181221,18.913015 76.919930,18.046841 74.393425,16.311800 
	C74.393425,19.657505 74.393425,21.939199 74.465263,24.988243 
z"/>
<path fill="#FF7F6B" opacity="1.000000" stroke="none" 
	d="
M157.823242,28.602180 
	C156.980133,27.734100 155.754593,27.001549 155.387192,25.964876 
	C154.887253,24.554253 155.042709,22.911362 154.917099,21.368073 
	C154.394608,21.280209 153.872101,21.192343 153.349594,21.104477 
	C152.902924,22.547211 152.564224,24.035942 151.975388,25.418119 
	C151.504883,26.522526 150.729965,27.497244 149.733612,28.160278 
	C149.306641,27.197760 149.236221,26.604488 149.217285,25.589260 
	C148.521545,23.941191 147.774307,22.715080 147.042419,21.319706 
	C147.061722,20.924028 147.034836,20.701338 146.977142,20.482368 
	C148.242279,18.928169 149.507431,17.373968 150.939133,15.615159 
	C151.678329,16.676762 152.556198,17.937523 154.106430,19.104862 
	C160.411728,20.742393 157.184860,25.285772 157.823242,28.602180 
z"/>
<path fill="#FF836F" opacity="1.000000" stroke="none" 
	d="
M69.596748,16.043186 
	C70.429962,16.680027 70.859840,17.309235 71.797119,18.681112 
	C69.460182,18.681112 67.912163,18.681112 65.241135,18.681112 
	C68.391251,21.888090 75.829338,22.102663 70.155304,28.394829 
	C69.482407,28.723326 69.057014,28.804266 67.962158,28.886213 
	C65.886627,28.099333 64.480560,27.311449 63.074486,26.523563 
	C63.284103,26.211067 63.493721,25.898571 63.703339,25.586073 
	C65.429161,25.703482 67.154984,25.820889 68.880806,25.938297 
	C68.991722,25.436068 69.102638,24.933840 69.213554,24.431612 
	C67.685242,23.865595 66.156937,23.299578 64.628632,22.733561 
	C62.093575,17.758940 63.028454,16.387169 69.596748,16.043186 
z"/>
<path fill="#FF826E" opacity="1.000000" stroke="none" 
	d="
M162.204010,19.130077 
	C162.902603,19.071701 163.601196,19.013327 164.959045,19.014721 
	C166.663742,20.378082 167.709167,21.681675 168.754608,22.985270 
	C167.298355,24.893007 168.803391,28.856707 163.984039,28.838428 
	C158.915970,25.782623 158.674026,23.681486 162.204010,19.130077 
M163.822174,26.034584 
	C164.406067,25.898291 164.989944,25.761997 165.573837,25.625704 
	C165.415466,25.394880 165.219177,24.949213 165.105118,24.969349 
	C164.521286,25.072418 163.958649,25.295557 163.822174,26.034584 
z"/>
<path fill="#FF8673" opacity="1.000000" stroke="none" 
	d="
M89.192108,28.595272 
	C87.724953,28.688829 86.418800,28.687700 85.220665,28.327398 
	C83.766029,27.889957 82.402527,27.149481 80.999596,26.540110 
	C82.022812,25.335562 83.005402,24.092533 84.090706,22.946800 
	C84.484291,22.531296 85.123367,22.348330 86.711311,21.477409 
	C84.240387,21.477409 82.963272,21.477409 80.707603,21.477409 
	C81.988472,20.347065 82.693703,19.724712 83.702408,18.983204 
	C84.749397,18.922365 85.492928,18.980679 86.759583,19.309036 
	C87.809799,20.384136 88.336891,21.189194 88.863991,21.994253 
	C89.042984,24.109972 89.221985,26.225691 89.192108,28.595272 
z"/>
<path fill="#FF8C7A" opacity="1.000000" stroke="none" 
	d="
M95.996033,23.913507 
	C96.094765,22.186888 96.193375,20.901363 96.360779,18.719130 
	C99.128281,19.281036 102.649826,18.988237 103.690315,20.455208 
	C105.078964,22.413027 104.540474,25.737738 104.829689,28.475372 
	C104.157104,28.581264 103.484520,28.687159 102.811935,28.793051 
	C102.274254,26.422453 101.736580,24.051855 101.198898,21.681257 
	C100.726212,21.656740 100.253525,21.632223 99.780838,21.607706 
	C99.196716,24.001968 98.612595,26.396229 98.028465,28.790491 
	C97.547905,28.775991 97.067345,28.761492 96.586777,28.746990 
	C96.389824,27.282862 96.192871,25.818731 95.996033,23.913507 
z"/>
<path fill="#FF816D" opacity="1.000000" stroke="none" 
	d="
M110.574142,22.996689 
	C111.511871,17.303272 114.437340,14.717795 118.365639,16.397074 
	C119.130775,16.724154 119.286438,18.476976 119.136864,19.351421 
	C114.068329,16.888258 113.434570,19.468092 113.615654,23.068958 
	C114.551170,28.404966 117.648087,25.660467 120.639679,25.232555 
	C119.365723,26.760412 117.682877,27.894112 116.000031,29.027813 
	C115.597160,28.921194 115.194290,28.814571 114.293571,28.463539 
	C113.182549,27.841959 112.569374,27.464790 111.956200,27.087624 
	C111.956200,27.087626 111.990860,27.019098 111.842812,26.691692 
	C111.321220,25.241753 110.947678,24.119221 110.574142,22.996689 
z"/>
<path fill="#FF8F7E" opacity="1.000000" stroke="none" 
	d="
M132.000549,28.936703 
	C131.360214,26.089199 130.719879,23.241697 130.079529,20.394196 
	C130.979111,20.363239 131.878708,20.332279 132.830933,21.080318 
	C133.554794,23.266867 134.226044,24.674417 134.897278,26.081966 
	C135.675644,24.889048 136.512802,23.728392 137.196121,22.483311 
	C137.398132,22.115238 137.166138,21.508978 137.133026,21.011868 
	C137.675430,20.868332 138.217834,20.724796 138.770569,21.229599 
	C138.781738,23.912380 138.782562,25.946825 138.783401,27.981272 
	C138.783401,27.981272 138.679779,28.223036 138.410034,28.420282 
	C136.093704,28.723921 134.047119,28.830313 132.000549,28.936703 
z"/>
<path fill="#FFEDE9" opacity="1.000000" stroke="none" 
	d="
M161.899506,18.915052 
	C158.674026,23.681486 158.915970,25.782623 163.657837,28.907608 
	C162.187546,32.100182 160.175125,31.884455 157.923798,28.998924 
	C157.184860,25.285772 160.411728,20.742393 154.388046,18.957319 
	C156.368149,14.904756 158.128677,14.857678 161.899506,18.915052 
z"/>
<path fill="#FFEDE9" opacity="1.000000" stroke="none" 
	d="
M64.176041,22.807005 
	C66.156937,23.299578 67.685242,23.865595 69.213554,24.431612 
	C69.102638,24.933840 68.991722,25.436068 68.880806,25.938297 
	C67.154984,25.820889 65.429161,25.703482 63.703339,25.586073 
	C63.493721,25.898571 63.284103,26.211067 63.074486,26.523563 
	C64.480560,27.311449 65.886627,28.099333 67.646408,28.962198 
	C65.768036,29.531334 63.480434,30.523588 61.330124,30.283945 
	C60.420902,30.182615 58.822437,27.013382 59.274685,26.084503 
	C59.979195,24.637495 62.165253,23.911816 64.176041,22.807005 
z"/>
<path fill="#FF8875" opacity="1.000000" stroke="none" 
	d="
M146.790771,20.154909 
	C147.034836,20.701338 147.061722,20.924028 146.772369,21.373680 
	C146.319061,21.671169 146.151169,21.745419 145.804138,21.777870 
	C145.624969,21.736074 145.258865,21.699356 145.053375,21.509136 
	C144.402908,21.347534 143.957947,21.376152 143.512985,21.404772 
	C143.880875,21.739672 144.248779,22.074570 144.814056,22.571190 
	C145.341873,22.806892 145.672302,22.880871 146.267914,23.126953 
	C147.010315,24.200163 147.487534,25.101273 147.804337,26.262562 
	C146.762573,27.342905 145.881241,28.163069 144.999893,28.983231 
	C143.663895,28.672071 142.327881,28.360912 140.651489,27.633930 
	C141.736130,26.795259 143.161163,26.372414 144.183609,26.069019 
	C142.936584,24.505726 141.571106,22.793941 140.205627,21.082157 
	C142.338547,20.663921 144.471466,20.245684 146.790771,20.154909 
z"/>
<path fill="#FF8F7D" opacity="1.000000" stroke="none" 
	d="
M170.157791,19.351254 
	C172.051865,19.351254 173.945938,19.351254 175.659851,19.351254 
	C174.257599,22.772610 173.027374,25.774191 171.797165,28.775772 
	C171.435242,28.764112 171.073334,28.752455 170.711411,28.740795 
	C170.503540,27.102028 170.295654,25.463263 170.093597,23.047749 
	C170.118866,21.297750 170.138321,20.324503 170.157791,19.351254 
z"/>
<path fill="#FFEDE9" opacity="1.000000" stroke="none" 
	d="
M89.192703,21.996258 
	C88.336891,21.189194 87.809799,20.384136 87.132004,19.330826 
	C87.045280,16.648691 86.752510,13.664721 90.459770,14.226562 
	C92.091522,14.473856 94.673584,15.359562 92.690163,18.661535 
	C91.817825,20.029854 91.326012,21.019247 90.834198,22.008640 
	C90.396599,22.005182 89.959007,22.001722 89.192703,21.996258 
z"/>
<path fill="#FF8B79" opacity="1.000000" stroke="none" 
	d="
M122.802719,23.990408 
	C122.930161,22.548399 123.057602,21.106392 123.193207,19.572014 
	C124.995987,19.572014 126.576523,19.572014 128.437500,19.572014 
	C126.734779,22.960669 125.295738,25.824572 123.455505,28.300356 
	C122.970444,26.604961 122.886581,25.297684 122.802719,23.990408 
z"/>
<path fill="#FF9180" opacity="1.000000" stroke="none" 
	d="
M90.886444,22.435978 
	C91.326012,21.019247 91.817825,20.029854 92.660126,18.965538 
	C94.546669,22.259598 94.157608,25.489052 93.129906,28.672224 
	C92.596939,28.691097 92.063972,28.709972 91.531006,28.728848 
	C91.333565,26.773670 91.136124,24.818495 90.886444,22.435978 
z"/>
<path fill="#FFEDE9" opacity="1.000000" stroke="none" 
	d="
M122.542328,24.017136 
	C122.886581,25.297684 122.970444,26.604961 123.095596,28.297567 
	C121.378426,32.631561 118.790329,31.283630 116.088394,29.400450 
	C117.682877,27.894112 119.365723,26.760412 121.047127,25.261232 
	C121.457771,24.611788 121.869850,24.327824 122.542328,24.017136 
z"/>
<path fill="#FFEDE9" opacity="1.000000" stroke="none" 
	d="
M113.995834,23.050537 
	C113.434570,19.468092 114.068329,16.888258 118.768188,19.442497 
	C117.449249,20.846924 115.912628,21.939522 113.995834,23.050537 
z"/>
<path fill="#FFEDE9" opacity="1.000000" stroke="none" 
	d="
M170.079315,18.961372 
	C170.138321,20.324503 170.118866,21.297750 170.045288,22.635782 
	C169.785599,22.999100 169.580002,22.997635 169.064514,22.990719 
	C167.709167,21.681675 166.663742,20.378082 165.305725,18.962849 
	C165.634399,17.927933 166.275650,17.004660 166.916885,16.081387 
	C167.944870,16.911419 168.972855,17.741455 170.079315,18.961372 
z"/>
<path fill="#FFEDE9" opacity="1.000000" stroke="none" 
	d="
M136.717010,21.008123 
	C137.166138,21.508978 137.398132,22.115238 137.196121,22.483311 
	C136.512802,23.728392 135.675644,24.889048 134.897278,26.081966 
	C134.226044,24.674417 133.554794,23.266867 132.936096,21.430046 
	C134.092758,21.001976 135.196884,21.003178 136.717010,21.008123 
z"/>
<path fill="#FFEDE9" opacity="1.000000" stroke="none" 
	d="
M139.871307,21.056904 
	C141.571106,22.793941 142.936584,24.505726 144.183609,26.069019 
	C143.161163,26.372414 141.736130,26.795259 140.318283,27.543419 
	C140.069595,27.895247 139.813736,27.921762 139.170639,27.964775 
	C138.782562,25.946825 138.781738,23.912380 138.823822,21.443787 
	C139.090149,21.016973 139.313568,21.024311 139.871307,21.056904 
z"/>
<path fill="#FFEDE9" opacity="1.000000" stroke="none" 
	d="
M132.081421,29.319862 
	C134.047119,28.830313 136.093704,28.723921 138.476105,28.533995 
	C137.392349,33.098888 134.723587,31.115612 132.081421,29.319862 
z"/>
<path fill="#FFEDE9" opacity="1.000000" stroke="none" 
	d="
M145.059204,29.329813 
	C145.881241,28.163069 146.762573,27.342905 148.104675,26.263437 
	C148.765564,26.006495 148.965668,26.008856 149.165802,26.011219 
	C149.236221,26.604488 149.306641,27.197760 149.381836,28.081095 
	C148.280930,29.842823 147.534607,32.489658 145.059204,29.329813 
z"/>
<path fill="#FFEDE9" opacity="1.000000" stroke="none" 
	d="
M110.264099,23.106045 
	C110.947678,24.119221 111.321220,25.241753 111.806099,26.702938 
	C109.129578,26.860928 107.988686,25.835142 110.264099,23.106045 
z"/>
<path fill="#FFEDE9" opacity="1.000000" stroke="none" 
	d="
M111.974304,27.422707 
	C112.569374,27.464790 113.182549,27.841959 113.985382,28.410809 
	C113.447502,28.320923 112.719955,28.039358 111.974304,27.422707 
z"/>
<path fill="#FB725D" opacity="1.000000" stroke="none" 
	d="
M54.014847,26.662762 
	C53.749134,26.458754 53.569412,25.939508 53.575779,25.270519 
	C53.874859,25.529690 53.987846,25.938606 54.014847,26.662762 
z"/>
<path fill="#FB725D" opacity="1.000000" stroke="none" 
	d="
M52.345985,31.928059 
	C52.487698,31.588221 52.940937,31.311426 53.670624,31.014498 
	C53.517220,31.326609 53.087368,31.658854 52.345985,31.928059 
z"/>
<path fill="#FF8470" opacity="1.000000" stroke="none" 
	d="
M77.541199,30.690529 
	C77.580284,30.615582 77.465630,30.547552 77.445923,30.580982 
	C77.426216,30.614412 77.502106,30.765476 77.541199,30.690529 
z"/>
<path fill="#FFE4E0" opacity="1.000000" stroke="none" 
	d="
M38.309845,34.270550 
	C39.939468,34.763390 41.172939,35.130833 42.504215,35.527412 
	C39.195480,38.880386 30.542898,39.023392 25.482063,35.033031 
	C30.338448,34.686184 34.126068,34.415672 38.309845,34.270550 
z"/>
<path fill="#B25B54" opacity="1.000000" stroke="none" 
	d="
M22.134789,24.047068 
	C22.239780,23.518147 22.344772,22.989225 23.007565,22.300999 
	C24.750713,22.404400 25.936058,22.667107 27.480637,22.932156 
	C28.557892,22.954277 29.275919,22.974054 29.998259,23.377239 
	C30.019859,24.271404 30.037146,24.782162 30.057606,25.598742 
	C29.984886,26.309910 29.908995,26.715254 29.528431,27.156050 
	C28.814964,27.188385 28.406170,27.185268 27.967592,26.900923 
	C27.769983,26.373661 27.602156,26.127630 27.434326,25.881599 
	C27.290266,26.599110 27.146206,27.316620 26.995993,28.019619 
	C26.989840,28.005110 27.021280,28.005768 26.705887,27.902504 
	C25.569809,27.504807 24.749126,27.210371 23.772007,26.705685 
	C23.300056,26.345856 22.984541,26.196276 22.824356,25.820751 
	C22.698051,25.078892 22.416420,24.562979 22.134789,24.047068 
z"/>
<path fill="#F06F5B" opacity="1.000000" stroke="none" 
	d="
M29.993942,22.993832 
	C29.275919,22.974054 28.557892,22.954277 27.309044,22.662106 
	C26.193956,21.525148 25.609688,20.660585 25.025421,19.796022 
	C24.996815,19.207253 24.968206,18.618481 25.260361,17.775169 
	C26.302744,17.707747 27.024368,17.894865 27.946735,18.154243 
	C28.385303,18.370199 28.618879,18.520494 28.829905,18.713594 
	C28.811602,18.749798 28.778164,18.823723 28.506796,18.831768 
	C28.056564,18.878189 27.877701,18.916565 27.557081,19.011587 
	C27.177702,19.295355 27.151096,19.540775 27.584841,20.077709 
	C28.889423,20.233946 29.944674,20.116972 31.280933,19.941132 
	C32.011185,20.045559 32.460430,20.208857 32.909676,20.372152 
	C31.937763,21.246042 30.965853,22.119936 29.993942,22.993832 
z"/>
<path fill="#F06F5B" opacity="1.000000" stroke="none" 
	d="
M22.669027,26.046698 
	C22.984541,26.196276 23.300056,26.345856 23.671366,27.004456 
	C24.825201,27.677574 25.923241,27.841671 27.021280,28.005768 
	C27.021280,28.005768 26.989840,28.005110 27.250973,28.000664 
	C27.682131,27.984236 27.852160,27.972254 28.009869,28.351723 
	C26.084150,29.511047 24.170752,30.278919 22.257353,31.046791 
	C21.852827,29.613760 21.448301,28.180731 21.363461,26.383781 
	C21.683144,26.019863 22.175079,26.070515 22.175079,26.070515 
	C22.175079,26.070515 22.669027,26.046698 22.669027,26.046698 
z"/>
<path fill="#704C52" opacity="1.000000" stroke="none" 
	d="
M22.459097,31.383007 
	C24.170752,30.278919 26.084150,29.511047 28.006962,28.157215 
	C28.016376,27.571259 27.997374,27.182156 27.997374,27.182156 
	C28.406170,27.185268 28.814964,27.188385 29.830311,27.134968 
	C30.633865,27.043438 30.830872,27.008438 31.019878,27.320568 
	C30.997278,28.130028 30.982677,28.592361 30.982239,29.039364 
	C30.996399,29.024035 31.009350,28.984343 31.009350,28.984343 
	C30.692549,29.722172 30.375750,30.460001 30.075607,31.539206 
	C27.615124,31.826794 25.137981,31.773006 22.459097,31.383007 
z"/>
<path fill="#C06A61" opacity="1.000000" stroke="none" 
	d="
M27.745991,18.081985 
	C27.024368,17.894865 26.302744,17.707747 25.301762,17.483192 
	C25.614597,16.824400 26.206795,16.203039 27.214157,15.270012 
	C27.773872,14.304113 27.918423,13.649881 28.062971,12.995649 
	C29.028467,13.078680 29.993965,13.161711 30.981247,13.826784 
	C30.996611,14.601242 30.990191,14.793657 30.761732,15.088493 
	C30.260334,15.386504 30.075386,15.648699 29.652462,16.025368 
	C28.795378,16.742819 28.270683,17.412403 27.745991,18.081985 
z"/>
<path fill="#6F474C" opacity="1.000000" stroke="none" 
	d="
M24.751492,19.973652 
	C25.609688,20.660585 26.193956,21.525148 26.949814,22.659763 
	C25.936058,22.667107 24.750713,22.404400 23.244228,22.138243 
	C23.441248,21.473621 23.959406,20.812450 24.751492,19.973652 
z"/>
<path fill="#E36A59" opacity="1.000000" stroke="none" 
	d="
M30.983770,14.986072 
	C30.990191,14.793657 30.996611,14.601242 31.042782,14.122039 
	C31.808004,13.902369 32.533474,13.969487 33.619514,14.100691 
	C33.975357,14.331505 33.970627,14.498236 33.707264,15.014986 
	C32.627014,15.238695 31.805391,15.112383 30.983770,14.986072 
z"/>
<path fill="#D36456" opacity="1.000000" stroke="none" 
	d="
M22.824356,25.820751 
	C22.669027,26.046698 22.175079,26.070515 22.175079,26.070515 
	C22.175079,26.070515 21.683144,26.019863 21.433386,25.995777 
	C21.421764,25.498308 21.659899,25.024927 22.016411,24.299307 
	C22.416420,24.562979 22.698051,25.078892 22.824356,25.820751 
z"/>
<path fill="#7D585D" opacity="1.000000" stroke="none" 
	d="
M27.768841,13.108820 
	C27.918423,13.649881 27.773872,14.304113 27.373852,14.975428 
	C27.237158,14.402337 27.355934,13.812164 27.768841,13.108820 
z"/>
<path fill="#8F4B4A" opacity="1.000000" stroke="none" 
	d="
M30.761732,15.088493 
	C31.805391,15.112383 32.627014,15.238695 33.681950,15.263899 
	C33.954742,17.480682 33.994221,19.798576 33.845291,22.640448 
	C33.577972,23.261295 33.499065,23.358168 33.420155,23.455036 
	C33.622845,23.564714 33.825539,23.674391 34.028229,23.784069 
	C34.028229,23.784069 34.513332,23.899498 34.776482,24.197647 
	C35.027218,24.662981 35.014797,24.830164 35.006172,24.995541 
	C35.009972,24.993732 35.022724,24.992699 34.704941,25.023453 
	C33.918400,25.432076 33.449650,25.809946 32.994019,26.400646 
	C33.007145,26.613478 33.025940,27.039530 32.749023,27.051634 
	C32.287331,27.065329 32.102547,27.066919 31.946310,27.064375 
	C31.974854,27.060238 31.939892,27.097094 31.962303,26.849937 
	C31.984713,26.602781 32.025242,26.108097 31.907494,25.819595 
	C31.211306,25.451702 30.632870,25.372311 30.054432,25.292919 
	C30.037146,24.782162 30.019859,24.271404 29.998257,23.377239 
	C30.965853,22.119936 31.937763,21.246042 32.909676,20.372152 
	C32.460430,20.208857 32.011185,20.045559 31.064087,19.854464 
	C30.291512,19.652685 30.107685,19.409901 30.007050,18.708500 
	C29.994516,17.538294 29.989685,16.757896 29.984852,15.977501 
	C30.075386,15.648699 30.260334,15.386504 30.761732,15.088493 
z"/>
<path fill="#F06F5B" opacity="1.000000" stroke="none" 
	d="
M35.002377,24.997349 
	C35.014797,24.830164 35.027218,24.662981 35.021275,24.244984 
	C37.766693,23.499678 40.530476,23.005188 43.294258,22.510696 
	C43.318832,22.712156 43.343407,22.913616 43.367985,23.115074 
	C41.227856,24.021069 39.087730,24.927063 36.452328,25.691784 
	C35.638828,25.366123 35.320602,25.181736 35.002377,24.997349 
z"/>
<path fill="#794446" opacity="1.000000" stroke="none" 
	d="
M31.917767,27.068512 
	C32.102547,27.066919 32.287331,27.065329 32.998543,27.235939 
	C34.126217,27.973513 34.727455,28.538881 35.328693,29.104252 
	C33.995457,29.280128 32.662224,29.456005 31.169170,29.308113 
	C31.009350,28.984343 30.996399,29.024035 31.185734,28.837379 
	C31.555967,28.123322 31.736868,27.595917 31.917767,27.068512 
z"/>
<path fill="#884948" opacity="1.000000" stroke="none" 
	d="
M35.556175,28.865707 
	C34.727455,28.538881 34.126217,27.973513 33.275459,27.223835 
	C33.025940,27.039530 33.007145,26.613478 33.297295,26.325340 
	C34.065876,25.689035 34.544300,25.340868 35.022724,24.992699 
	C35.022724,24.992699 35.009972,24.993732 35.006172,24.995541 
	C35.320602,25.181736 35.638828,25.366123 36.114929,25.784389 
	C36.109756,26.887897 35.946705,27.757528 35.556175,28.865707 
z"/>
<path fill="#F06F5B" opacity="1.000000" stroke="none" 
	d="
M34.020031,23.586514 
	C33.825539,23.674391 33.622845,23.564714 33.420155,23.455036 
	C33.499065,23.358168 33.577972,23.261295 33.827057,23.079103 
	C33.997227,22.993782 34.011833,23.388960 34.020031,23.586514 
z"/>
<path fill="#FF8470" opacity="1.000000" stroke="none" 
	d="
M74.429344,24.604568 
	C74.393425,21.939199 74.393425,19.657505 74.393425,16.311800 
	C76.919930,18.046841 78.181221,18.913015 79.753906,19.993032 
	C75.746964,22.440516 76.029549,25.018175 80.437782,27.678902 
	C76.441650,29.611588 75.013008,28.190233 74.429344,24.604568 
z"/>
<path fill="#FFF1EF" opacity="1.000000" stroke="none" 
	d="
M149.217285,25.589260 
	C148.965668,26.008856 148.765564,26.006495 148.265106,26.003258 
	C147.487534,25.101273 147.010315,24.200163 146.264709,22.843210 
	C145.991974,22.198135 145.987640,22.008902 145.983292,21.819666 
	C146.151169,21.745419 146.319061,21.671169 146.757019,21.542946 
	C147.774307,22.715080 148.521545,23.941191 149.217285,25.589260 
z"/>
<path fill="#FFEDE9" opacity="1.000000" stroke="none" 
	d="
M163.605392,25.755651 
	C163.958649,25.295557 164.521286,25.072418 165.105118,24.969349 
	C165.219177,24.949213 165.415466,25.394880 165.573837,25.625704 
	C164.989944,25.761997 164.406067,25.898291 163.605392,25.755651 
z"/>
<path fill="#FFEDE9" opacity="1.000000" stroke="none" 
	d="
M144.616669,22.409466 
	C144.248779,22.074570 143.880875,21.739672 143.512985,21.404772 
	C143.957947,21.376152 144.402908,21.347534 144.892746,21.687824 
	C144.937622,22.056734 144.616669,22.409466 144.616669,22.409466 
z"/>
<path fill="#FFEDE9" opacity="1.000000" stroke="none" 
	d="
M145.804138,21.777870 
	C145.987640,22.008902 145.991974,22.198135 145.999527,22.671108 
	C145.672302,22.880871 145.341873,22.806892 144.814056,22.571190 
	C144.616669,22.409466 144.937622,22.056734 145.098236,21.878044 
	C145.258865,21.699356 145.624969,21.736074 145.804138,21.777870 
z"/>
<path fill="#794446" opacity="1.000000" stroke="none" 
	d="
M26.705887,27.902504 
	C25.923241,27.841671 24.825201,27.677574 23.827803,27.214706 
	C24.749126,27.210371 25.569809,27.504807 26.705887,27.902504 
z"/>
<path fill="#E36A59" opacity="1.000000" stroke="none" 
	d="
M30.057606,25.598743 
	C30.632870,25.372311 31.211306,25.451702 31.656330,25.868435 
	C31.340805,26.483162 31.158693,26.760546 30.977608,27.012384 
	C30.978632,26.986839 31.027876,26.973440 31.027876,26.973440 
	C30.830872,27.008438 30.633865,27.043438 30.134981,27.099518 
	C29.908995,26.715254 29.984886,26.309910 30.057606,25.598743 
z"/>
<path fill="#7E4647" opacity="1.000000" stroke="none" 
	d="
M27.967592,26.900925 
	C27.997374,27.182156 28.016376,27.571259 28.019281,27.765764 
	C27.852160,27.972254 27.682131,27.984236 27.257126,28.015175 
	C27.146206,27.316620 27.290266,26.599110 27.434326,25.881599 
	C27.602156,26.127630 27.769983,26.373661 27.967592,26.900925 
z"/>
<path fill="#AE5750" opacity="1.000000" stroke="none" 
	d="
M29.652462,16.025368 
	C29.989685,16.757896 29.994516,17.538294 29.705431,18.629978 
	C29.223747,18.853310 29.035978,18.765350 28.848207,18.677391 
	C28.618879,18.520494 28.385303,18.370199 27.946735,18.154243 
	C28.270683,17.412403 28.795378,16.742819 29.652462,16.025368 
z"/>
<path fill="#794446" opacity="1.000000" stroke="none" 
	d="
M28.829905,18.713594 
	C29.035978,18.765350 29.223747,18.853310 29.713135,19.019791 
	C30.107685,19.409901 30.291512,19.652685 30.783079,19.913334 
	C29.944674,20.116972 28.889423,20.233946 27.723854,20.136717 
	C27.613533,19.922514 27.907305,19.852346 28.160233,19.793459 
	C28.534826,19.430956 28.656496,19.127340 28.778164,18.823723 
	C28.778164,18.823723 28.811602,18.749798 28.829905,18.713594 
z"/>
<path fill="#C06A61" opacity="1.000000" stroke="none" 
	d="
M27.474522,19.863506 
	C27.151096,19.540775 27.177702,19.295355 27.633102,19.230976 
	C27.850882,19.393719 27.907305,19.852346 27.907305,19.852346 
	C27.907305,19.852346 27.613533,19.922514 27.474522,19.863506 
z"/>
<path fill="#AE5750" opacity="1.000000" stroke="none" 
	d="
M28.160233,19.793459 
	C27.907305,19.852346 27.850882,19.393719 27.774860,19.174330 
	C27.877701,18.916565 28.056564,18.878189 28.506798,18.831768 
	C28.656496,19.127340 28.534826,19.430956 28.160233,19.793459 
z"/>
<path fill="#FB745E" opacity="1.000000" stroke="none" 
	d="
M31.946312,27.064375 
	C31.736868,27.595917 31.555967,28.123322 31.171572,28.852709 
	C30.982677,28.592361 30.997278,28.130028 31.019878,27.320568 
	C31.027876,26.973440 30.978632,26.986839 31.217155,27.048893 
	C31.455681,27.110949 31.939892,27.097094 31.939892,27.097094 
	C31.939892,27.097094 31.974854,27.060238 31.946312,27.064375 
z"/>
<path fill="#BB5B52" opacity="1.000000" stroke="none" 
	d="
M34.704941,25.023453 
	C34.544300,25.340868 34.065876,25.689035 33.284172,26.112511 
	C33.449650,25.809946 33.918400,25.432076 34.704941,25.023453 
z"/>
<path fill="#884948" opacity="1.000000" stroke="none" 
	d="
M31.962303,26.849937 
	C31.939892,27.097094 31.455681,27.110949 31.216133,27.074440 
	C31.158693,26.760546 31.340805,26.483162 31.774078,26.156937 
	C32.025242,26.108097 31.984713,26.602781 31.962303,26.849937 
z"/>
</svg>