<?xml version="1.0" encoding="UTF-8"?>
<svg version="1.1" xmlns="http://www.w3.org/2000/svg" width="187" height="52">
<path d="M0 0 C61.71 0 123.42 0 187 0 C187 17.16 187 34.32 187 52 C125.29 52 63.58 52 0 52 C0 34.84 0 17.68 0 0 Z " fill="#FFF6E7" transform="translate(0,0)"/>
<path d="M0 0 C61.71 0 123.42 0 187 0 C187 8.58 187 17.16 187 26 C186.01 24.02 186.01 24.02 185 22 C184.29875 20.96875 183.5975 19.9375 182.875 18.875 C181 16 181 16 181 14 C172.01058857 9.39583892 164.25494185 8.56370489 154.17773438 8.61181641 C152.8018604 8.60774386 151.42598971 8.60239817 150.05012512 8.59588623 C146.33727964 8.58228785 142.62468613 8.58748006 138.91183662 8.59702349 C135.01230351 8.60465911 131.11279087 8.5975637 127.21325684 8.59286499 C120.66670896 8.58741874 114.12026287 8.59456925 107.57373047 8.60888672 C100.02271984 8.6252111 92.47195229 8.61992178 84.92094755 8.6034075 C78.41874736 8.58976029 71.91662001 8.58788874 65.41441011 8.59572351 C61.53926902 8.6003823 57.66424189 8.60107461 53.78910828 8.59111404 C50.14460146 8.58239934 46.50040572 8.5885476 42.85593224 8.60579681 C40.89324233 8.61160632 38.93052587 8.60278469 36.96784973 8.59341431 C28.88810391 8.65105693 21.73206093 9.09728594 15.1875 14.1875 C10.86982068 19.73880198 8.28464901 24.5997189 8.69140625 31.7734375 C9.67951935 38.90286116 12.25558799 43.03417246 17.859375 47.58984375 C20.86787563 49.57172099 23.47324644 50.33873371 27 51 C27 51.33 27 51.66 27 52 C18.09 52 9.18 52 0 52 C0 34.84 0 17.68 0 0 Z " fill="#FFFEFE" transform="translate(0,0)"/>
<path d="M0 0 C1.95490358 1.95490358 2.76698301 3.35394423 3.9375 5.8125 C5.09898612 8.23117521 6.2302614 10.33716848 7.75 12.5625 C9.47543361 15.92709553 9.47430566 18.27331269 9 22 C7.5625 24.4375 7.5625 24.4375 5 26 C0.68909336 26.76726228 -2.74710589 26.73340143 -6.5625 24.5 C-8.61627314 20.92822063 -8.94318394 17.93917997 -8 14 C-6.66681062 11.56123895 -5.18439138 9.39097122 -3.5078125 7.17578125 C-1.90957464 4.86951574 -0.9494807 2.63181301 0 0 Z " fill="#FFB22C" transform="translate(33,16)"/>
<path d="M0 0 C4.86896303 0.59619955 9.32790951 1.56976822 14 3 C13.52591957 7.26672384 11.11692878 9.2455048 8 12 C5.6875 13.3125 5.6875 13.3125 4 14 C1.37548383 11.37548383 1.4167132 9.5122172 0.875 5.875 C0.70742187 4.77929688 0.53984375 3.68359375 0.3671875 2.5546875 C0.24601562 1.71164062 0.12484375 0.86859375 0 0 Z " fill="#FFB330" transform="translate(0,0)"/>
<path d="M0 0 C0.33 0 0.66 0 1 0 C1 6.27 1 12.54 1 19 C-5.27 19 -11.54 19 -18 19 C-18 18.67 -18 18.34 -18 18 C-17.39671875 17.80664062 -16.7934375 17.61328125 -16.171875 17.4140625 C-14.97304687 17.02347656 -14.97304687 17.02347656 -13.75 16.625 C-12.96109375 16.36976562 -12.1721875 16.11453125 -11.359375 15.8515625 C-6.9450117 14.41036338 -6.9450117 14.41036338 -3.8515625 11.171875 C-2.95378074 8.88211969 -2.13212183 6.59019475 -1.375 4.25 C-1.11460937 3.45078125 -0.85421875 2.6515625 -0.5859375 1.828125 C-0.39257812 1.22484375 -0.19921875 0.6215625 0 0 Z " fill="#FFFEFD" transform="translate(186,33)"/>
<path d="M0 0 C0.99 0 1.98 0 3 0 C3.33 1.32 3.66 2.64 4 4 C5.65 4.33 7.3 4.66 9 5 C9.125 8.375 9.125 8.375 9 12 C8.34 12.66 7.68 13.32 7 14 C4.69 14 2.38 14 0 14 C0 9.38 0 4.76 0 0 Z " fill="#FFBD4A" transform="translate(66,21)"/>
<path d="M0 0 C1.32 0 2.64 0 4 0 C4.67057887 1.7902061 5.3363469 3.58221489 6 5.375 C6.556875 6.87160156 6.556875 6.87160156 7.125 8.3984375 C8 11 8 11 8 13 C7.01 13 6.02 13 5 13 C5 12.01 5 11.02 5 10 C3.02 10 1.04 10 -1 10 C-1 10.66 -1 11.32 -1 12 C-1.66 12 -2.32 12 -3 12 C-2.68950274 10.56206608 -2.3765224 9.1246682 -2.0625 7.6875 C-1.88847656 6.88699219 -1.71445312 6.08648437 -1.53515625 5.26171875 C-1 3 -1 3 0 0 Z " fill="#FFC35B" transform="translate(57,22)"/>
<path d="M0 0 C2.5 0.25 2.5 0.25 4.5 2.25 C4.125 5.875 4.125 5.875 3.5 9.25 C0.625 9.875 0.625 9.875 -2.5 10.25 C-4.5 8.25 -4.5 8.25 -4.75 5.25 C-4.43608753 1.48305032 -3.83691092 0.38369109 0 0 Z " fill="#FFC55F" transform="translate(90.5,24.75)"/>
<path d="M0 0 C3.375 -0.125 3.375 -0.125 7 0 C7.66 0.66 8.32 1.32 9 2 C8.44444444 6.55555556 8.44444444 6.55555556 7 8 C5.33382885 8.04063832 3.66611905 8.042721 2 8 C2 9.32 2 10.64 2 12 C1.34 12 0.68 12 0 12 C0 8.04 0 4.08 0 0 Z " fill="#FFB22C" transform="translate(135,22)"/>
<path d="M0 0 C2.5 0.25 2.5 0.25 4.5 2.25 C4.125 5.875 4.125 5.875 3.5 9.25 C1.1875 9.9375 1.1875 9.9375 -1.5 10.25 C-3.3125 9.125 -3.3125 9.125 -4.5 7.25 C-4.8125 4.6875 -4.8125 4.6875 -4.5 2.25 C-2.5 0.25 -2.5 0.25 0 0 Z " fill="#FFB433" transform="translate(124.5,24.75)"/>
<path d="M0 0 C0.99 0 1.98 0 3 0 C3 2.31 3 4.62 3 7 C3.99 7 4.98 7 6 7 C6 4.69 6 2.38 6 0 C6.99 0 7.98 0 9 0 C9 3.3 9 6.6 9 10 C5.625 10.125 5.625 10.125 2 10 C0 8 0 8 -0.1953125 6.0546875 C-0.13020833 4.03645833 -0.06510417 2.01822917 0 0 Z " fill="#FFC155" transform="translate(102,25)"/>
<path d="M0 0 C0.78375 0.04125 1.5675 0.0825 2.375 0.125 C2.705 1.775 3.035 3.425 3.375 5.125 C1.725 5.125 0.075 5.125 -1.625 5.125 C-1.625 6.115 -1.625 7.105 -1.625 8.125 C0.025 7.795 1.675 7.465 3.375 7.125 C3.045 8.115 2.715 9.105 2.375 10.125 C-0.595 9.63 -0.595 9.63 -3.625 9.125 C-4.25 5.75 -4.25 5.75 -4.625 2.125 C-2.625 0.125 -2.625 0.125 0 0 Z " fill="#FFB534" transform="translate(167.625,24.875)"/>
<path d="M0 0 C0.66 0 1.32 0 2 0 C2 2.31 2 4.62 2 7 C2.99 7 3.98 7 5 7 C5 4.69 5 2.38 5 0 C5.99 0 6.98 0 8 0 C8 3.3 8 6.6 8 10 C5.66705225 10.04241723 3.33297433 10.04092937 1 10 C0 9 0 9 -0.09765625 6.93359375 C-0.08605469 6.10988281 -0.07445312 5.28617188 -0.0625 4.4375 C-0.05347656 3.61121094 -0.04445312 2.78492188 -0.03515625 1.93359375 C-0.02355469 1.29550781 -0.01195312 0.65742188 0 0 Z " fill="#FFBD49" transform="translate(146,25)"/>
<path d="M0 0 C1.2065625 0.0309375 1.2065625 0.0309375 2.4375 0.0625 C2.7675 0.7225 3.0975 1.3825 3.4375 2.0625 C2.1175 2.0625 0.7975 2.0625 -0.5625 2.0625 C-0.5625 2.7225 -0.5625 3.3825 -0.5625 4.0625 C0.7575 4.3925 2.0775 4.7225 3.4375 5.0625 C3.1075 6.7125 2.7775 8.3625 2.4375 10.0625 C-0.5325 9.5675 -0.5325 9.5675 -3.5625 9.0625 C-3.5625 8.4025 -3.5625 7.7425 -3.5625 7.0625 C-1.0875 7.5575 -1.0875 7.5575 1.4375 8.0625 C1.4375 7.4025 1.4375 6.7425 1.4375 6.0625 C0.1175 5.7325 -1.2025 5.4025 -2.5625 5.0625 C-3.125 3.125 -3.125 3.125 -3.5625 1.0625 C-2.5625 0.0625 -2.5625 0.0625 0 0 Z " fill="#FFBB44" transform="translate(80.5625,24.9375)"/>
<path d="M0 0 C0.66 0 1.32 0 2 0 C2 0.66 2 1.32 2 2 C2.99 2 3.98 2 5 2 C5 2.66 5 3.32 5 4 C4.01 4 3.02 4 2 4 C2 5.98 2 7.96 2 10 C2.99 10.33 3.98 10.66 5 11 C3.0625 11.5625 3.0625 11.5625 1 12 C0 11 0 11 -0.0625 7.4375 C-0.041875 6.303125 -0.02125 5.16875 0 4 C-0.66 4 -1.32 4 -2 4 C-2 3.34 -2 2.68 -2 2 C-1.34 2 -0.68 2 0 2 C0 1.34 0 0.68 0 0 Z " fill="#FFB83B" transform="translate(114,23)"/>
<path d="M0 0 C1.98 0 3.96 0 6 0 C6 0.66 6 1.32 6 2 C5.01 2.495 5.01 2.495 4 3 C3.59270772 5.32156597 3.25561323 7.6568787 3 10 C2.01 10 1.02 10 0 10 C0 6.7 0 3.4 0 0 Z " fill="#FFC053" transform="translate(156,25)"/>
<path d="M0 0 C3 2 3 2 3.6875 4.625 C3.790625 5.40875 3.89375 6.1925 4 7 C3.01 7 2.02 7 1 7 C1 6.01 1 5.02 1 4 C-0.98 4 -2.96 4 -5 4 C-5 4.66 -5 5.32 -5 6 C-5.66 6 -6.32 6 -7 6 C-6.625 4.0625 -6.625 4.0625 -6 2 C-3.50907189 0.75453595 -2.58919267 1.2232422 0 2 C0 1.34 0 0.68 0 0 Z " fill="#FFB941" transform="translate(61,28)"/>
<path d="M0 0 C2.4375 0.1875 2.4375 0.1875 3.4375 1.1875 C3.47813832 2.85367115 3.480221 4.52138095 3.4375 6.1875 C2.7775 5.1975 2.1175 4.2075 1.4375 3.1875 C0.4475 3.1875 -0.5425 3.1875 -1.5625 3.1875 C-1.5625 4.5075 -1.5625 5.8275 -1.5625 7.1875 C-0.9025 7.8475 -0.2425 8.5075 0.4375 9.1875 C-1.2125 8.8575 -2.8625 8.5275 -4.5625 8.1875 C-4.6875 5.3125 -4.6875 5.3125 -4.5625 2.1875 C-2.5625 0.1875 -2.5625 0.1875 0 0 Z " fill="#FFB433" transform="translate(90.5625,24.8125)"/>
<path d="M0 0 C3.375 -0.125 3.375 -0.125 7 0 C7.66 0.66 8.32 1.32 9 2 C8.625 4.125 8.625 4.125 8 6 C6 6 4 6 2 6 C2 4.68 2 3.36 2 2 C1.34 1.34 0.68 0.68 0 0 Z " fill="#FFD387" transform="translate(135,22)"/>
<path d="M0 0 C0.66 0 1.32 0 2 0 C2.06058594 0.68707031 2.12117188 1.37414062 2.18359375 2.08203125 C2.26738281 2.98308594 2.35117188 3.88414063 2.4375 4.8125 C2.51871094 5.70582031 2.59992188 6.59914063 2.68359375 7.51953125 C2.93489767 10.12743559 2.93489767 10.12743559 4 13 C2.68 12.67 1.36 12.34 0 12 C0 8.04 0 4.08 0 0 Z " fill="#FFB739" transform="translate(97,22)"/>
<path d="M0 0 C0.93065133 2.60582371 1.14917407 3.64198224 0.0625 6.25 C-0.4634375 7.11625 -0.4634375 7.11625 -1 8 C-3.97 7.505 -3.97 7.505 -7 7 C-6.67 5.68 -6.34 4.36 -6 3 C-4.02 3 -2.04 3 0 3 C0 2.01 0 1.02 0 0 Z " fill="#FFC96B" transform="translate(128,27)"/>
<path d="M0 0 C0.66 0.33 1.32 0.66 2 1 C2 2.98 2 4.96 2 7 C0.35 7 -1.3 7 -3 7 C-3 5.02 -3 3.04 -3 1 C-2.01 0.67 -1.02 0.34 0 0 Z " fill="#FFF1DA" transform="translate(119,26)"/>
<path d="M0 0 C0.66 1.32 1.32 2.64 2 4 C0.35 5.65 -1.3 7.3 -3 9 C-3.99 8.34 -4.98 7.68 -6 7 C-5.195625 6.21625 -4.39125 5.4325 -3.5625 4.625 C-1.01309583 2.28017144 -1.01309583 2.28017144 0 0 Z " fill="#FFD489" transform="translate(40,33)"/>
<path d="M0 0 C1.2065625 0.0309375 1.2065625 0.0309375 2.4375 0.0625 C2.7675 0.7225 3.0975 1.3825 3.4375 2.0625 C3.1075 2.7225 2.7775 3.3825 2.4375 4.0625 C0.7875 4.0625 -0.8625 4.0625 -2.5625 4.0625 C-2.8925 3.0725 -3.2225 2.0825 -3.5625 1.0625 C-2.5625 0.0625 -2.5625 0.0625 0 0 Z " fill="#FFC869" transform="translate(167.5625,24.9375)"/>
<path d="M0 0 C2.64 0.33 5.28 0.66 8 1 C7.67 1.66 7.34 2.32 7 3 C4.125 3.75 4.125 3.75 1 4 C0.01 3.34 -0.98 2.68 -2 2 C-1.34 2 -0.68 2 0 2 C0 1.34 0 0.68 0 0 Z " fill="#FFE7BE" transform="translate(28,41)"/>
<path d="M0 0 C0.99 0.33 1.98 0.66 3 1 C2.67 2.65 2.34 4.3 2 6 C1.01 5.67 0.02 5.34 -1 5 C-0.67 3.35 -0.34 1.7 0 0 Z " fill="#FFF1DA" transform="translate(70,27)"/>
<path d="M0 0 C0.99 0 1.98 0 3 0 C3 1.65 3 3.3 3 5 C1.68 5 0.36 5 -1 5 C-0.67 3.35 -0.34 1.7 0 0 Z " fill="#FFF0D8" transform="translate(89,27)"/>
<path d="M0 0 C0.598125 0.309375 1.19625 0.61875 1.8125 0.9375 C4.08956772 2.10209704 4.08956772 2.10209704 7 3 C7 3.66 7 4.32 7 5 C4.69 4.67 2.38 4.34 0 4 C0 2.68 0 1.36 0 0 Z " fill="#FFE9C3" transform="translate(75,28)"/>
<path d="M0 0 C0.33 0.99 0.66 1.98 1 3 C2.65 2.67 4.3 2.34 6 2 C5.67 2.99 5.34 3.98 5 5 C2.03 4.505 2.03 4.505 -1 4 C-0.67 2.68 -0.34 1.36 0 0 Z " fill="#FFBD49" transform="translate(165,30)"/>
<path d="M0 0 C0.33 1.32 0.66 2.64 1 4 C-2 6 -2 6 -5 6 C-5 5.01 -5 4.02 -5 3 C-3.35 3 -1.7 3 0 3 C0 2.01 0 1.02 0 0 Z " fill="#FFDEA6" transform="translate(171,27)"/>
<path d="M0 0 C1.65 0 3.3 0 5 0 C5.33 0.66 5.66 1.32 6 2 C5.67 2.66 5.34 3.32 5 4 C3.68 4 2.36 4 1 4 C0.67 2.68 0.34 1.36 0 0 Z " fill="#FFCC74" transform="translate(122,25)"/>
</svg>
